<?xml version="1.0" standalone="no"?>
<!DOCTYPE svg PUBLIC "-//W3C//DTD SVG 1.1//EN" "http://www.w3.org/Graphics/SVG/1.1/DTD/svg11.dtd" >
<svg xmlns="http://www.w3.org/2000/svg" xmlns:xlink="http://www.w3.org/1999/xlink" version="1.1">
<metadata>
Created by FontForge 20190801 at Wed Nov 25 18:25:07 1998
 By Jimmy Wärting
Copyright 1994 URW &#38; SoftMaker, Inc. All rights reserved.
</metadata>
<defs>
<font id="OcrA" horiz-adv-x="620" >
  <font-face 
    font-family="OcrA"
    font-weight="400"
    font-stretch="normal"
    units-per-em="1000"
    panose-1="0 0 4 0 0 0 0 0 0 0"
    ascent="800"
    descent="-200"
    x-height="462"
    cap-height="667"
    bbox="0 -176 620 800"
    underline-thickness="50"
    underline-position="-125"
    unicode-range="U+0020-F002"
  />
<missing-glyph horiz-adv-x="500" 
d="M63 0v800h375v-800h-375zM125 63h250v675h-250v-675z" />
    <glyph glyph-name=".notdef" horiz-adv-x="500" 
d="M63 0v800h375v-800h-375zM125 63h250v675h-250v-675z" />
    <glyph glyph-name=".null" horiz-adv-x="0" 
 />
    <glyph glyph-name="nonmarkingreturn" 
 />
    <glyph glyph-name="space" unicode=" " 
 />
    <glyph glyph-name="exclam" unicode="!" 
d="M371 621q0 -6 -1 -24l-15 -276q-2 -40 -11 -53t-34 -13q-24 0 -33 13t-11 53l-15 276q-1 7 -1 24q0 46 47 46h13q35 0 48 -10t13 -36zM374 73q0 -40 -3 -48q-9 -25 -46 -25h-15q-36 0 -49.5 10t-13.5 37v13q0 34 10.5 47t37.5 13h15q37 0 50.5 -10t13.5 -37z" />
    <glyph glyph-name="quotedbl" unicode="&#x22;" 
d="M521 628q0 -6 -8 -38l-51 -205q-8 -33 -14 -42q-10 -15 -36 -15q-31 0 -40 19q-6 13 -6 49v203q0 44 12 56t56 12h19q35 0 45 -4q23 -9 23 -35zM321 628q0 -6 -8 -38l-51 -205q-8 -33 -14 -42q-10 -15 -36 -15q-31 0 -40 19q-6 13 -6 49v203q0 44 12 56t56 12h19
q35 0 45 -4q23 -9 23 -35z" />
    <glyph glyph-name="numbersign" unicode="#" 
d="M515 267q0 -24 -20 -36q-8 -5 -48 -5h-14v-72q0 -41 -8 -52q-14 -16 -33 -16q-23 0 -32 14.5t-9 53.5v72h-82v-72q0 -41 -8 -52q-12 -16 -33 -16q-23 0 -32 14.5t-9 53.5v72h-14q-41 0 -52 8q-16 14 -16 33q0 24 20 36q8 5 48 5h14v95h-14q-41 0 -52 8q-16 12 -16 33
q0 24 20 36q8 5 48 5h14v72q0 39 9 53.5t32 14.5q24 0 36 -20q5 -8 5 -48v-72h82v72q0 39 9 53.5t32 14.5t32 -14.5t9 -53.5v-72h14q41 0 52 -8q16 -14 16 -33q0 -23 -14.5 -32t-53.5 -9h-14v-95h14q41 0 52 -8q16 -14 16 -33zM351 308v95h-82v-95h82z" />
    <glyph glyph-name="dollar" unicode="$" 
d="M522 174q0 -44 -45 -44h-124v-73q0 -57 -43 -57q-42 0 -42 57v73h-113q-57 0 -57 43q0 42 57 42h282v76h-298q-41 0 -41 46v156q0 44 45 44h125v73q0 56 42 56q43 0 43 -56v-73h112q57 0 57 -42q0 -43 -57 -43h-282v-76h298q41 0 41 -46v-156z" />
    <glyph glyph-name="percent" unicode="%" 
d="M237 421q0 -16 -13 -28.5t-30 -12.5h-90q-17 0 -29.5 13t-12.5 30v234q0 17 13 30t30 13h89q18 0 30.5 -13t12.5 -32v-234zM547 677q-1 -19 -20 -51l-401 -692q-20 -35 -37 -35q-22 0 -22 26q0 19 19 52l401 689q20 34 40 34q22 0 20 -23zM549 -58q0 -16 -13 -28.5
t-30 -12.5h-91q-17 0 -29.5 13t-12.5 30v235q0 17 13 30t30 13h90q18 0 30.5 -13t12.5 -32v-235zM191 426v228h-83v-228h83zM503 -53v229h-84v-229h84z" />
    <glyph glyph-name="ampersand" unicode="&#x26;" 
d="M524 42q0 -18 -12.5 -30.5t-30.5 -12.5t-40 23l-40 42l-61 -52q-14 -12 -31 -12h-100q-46 0 -78.5 32.5t-32.5 77.5v74q0 23 16 37l78 68l-79 84q-15 16 -15 32v82q0 42 33 74t76 32h118q46 0 79 -31.5t33 -74.5v-82q0 -20 -21 -38l-101 -86l93 -97l31 27q23 20 39 20
q18 0 30.5 -13t12.5 -31q0 -19 -25 -41l-30 -26l37 -40q21 -23 21 -38zM353 424v51q0 33 -31 33h-109q-30 0 -30 -33v-51l74 -80zM343 127l-93 99l-67 -58v-54q0 -29 31 -29h81z" />
    <glyph glyph-name="quotesingle" unicode="'" 
d="M388 628q0 -6 -8 -38l-51 -205q-8 -33 -14 -42q-10 -15 -36 -15q-31 0 -40 19q-6 13 -6 49v203q0 44 12 56t56 12h19q35 0 45 -4q23 -9 23 -35z" />
    <glyph glyph-name="parenleft" unicode="(" 
d="M421 42q0 -17 -12.5 -29.5t-29.5 -12.5q-14 0 -22.5 6t-27.5 30l-84 104q-44 54 -44 118v151q0 64 44 118l84 104q19 24 27.5 30t22.5 6q17 0 29.5 -12.5t12.5 -29.5q0 -12 -14 -32q-10 -11 -11 -14l-93 -122q-15 -20 -15 -48v-151q0 -28 15 -48l93 -122q0 -1 11 -14
q14 -18 14 -32z" />
    <glyph glyph-name="parenright" unicode=")" 
d="M420 258q0 -64 -44 -118l-84 -104q-19 -24 -27.5 -30t-22.5 -6q-17 0 -29.5 12.5t-12.5 29.5q0 15 14 32q5 6 11 14l93 122q15 20 15 48v151q0 28 -15 48l-93 122q-1 3 -11 14q-14 20 -14 32q0 17 12.5 29.5t29.5 12.5q14 0 22.5 -6t27.5 -30l84 -104q44 -54 44 -118
v-151z" />
    <glyph glyph-name="asterisk" unicode="*" 
d="M521 189q0 -19 -12.5 -31.5t-30.5 -12.5q-15 0 -38 20l-88 75v-109q0 -57 -42 -57q-43 0 -43 57v109l-88 -75q-23 -20 -38 -20q-18 0 -30.5 12.5t-12.5 31.5q0 17 26 40l120 104l-120 102q-26 22 -26 41t12.5 31.5t30.5 12.5q15 0 38 -20l88 -75v112q0 57 43 57
q42 0 42 -57v-112l88 75q23 20 38 20q18 0 30.5 -13t12.5 -31q0 -19 -26 -41l-120 -102l120 -104q26 -23 26 -40z" />
    <glyph glyph-name="plus" unicode="+" 
d="M522 332q0 -43 -57 -43h-112v-111q0 -57 -42 -57q-43 0 -43 56v112h-111q-57 0 -57 43q0 42 57 42h111v112q0 57 43 57q42 0 42 -57v-112h112q57 0 57 -42z" />
    <glyph glyph-name="comma" unicode="," 
d="M438 56q0 -56 -42 -56q-43 0 -43 56v160h-113q-56 0 -56 43q0 42 56 42h156q18 0 30 -12.5t12 -30.5v-202z" />
    <glyph glyph-name="hyphen" unicode="-" 
d="M412 336q0 -43 -57 -43h-88q-57 0 -57 43t57 43h88q57 0 57 -43z" />
    <glyph glyph-name="hyphen" unicode="&#x2010;" 
d="M412 336q0 -43 -57 -43h-88q-57 0 -57 43t57 43h88q57 0 57 -43z" />
    <glyph glyph-name="period" unicode="." 
d="M396 152q0 -45 -45 -45h-82q-43 0 -43 43v71q0 19 12.5 31.5t31.5 12.5h81q45 0 45 -44v-69z" />
    <glyph glyph-name="slash" unicode="/" 
d="M522 626q0 -15 -12 -36l-325 -556q-20 -34 -44 -34q-17 0 -29.5 12.5t-12.5 28.5q0 14 13 36l324 556q20 34 44 34q17 0 29.5 -12.5t12.5 -28.5z" />
    <glyph glyph-name="zero" unicode="0" 
d="M522 79q0 -31 -25.5 -55t-59.5 -24h-257q-33 0 -57.5 25.5t-24.5 59.5v497q0 35 25.5 60t59.5 25h254q36 0 60.5 -25.5t24.5 -63.5v-499zM437 85v497h-254v-497h254z" />
    <glyph glyph-name="one" unicode="1" 
d="M523 46q0 -46 -40 -46h-327q-57 0 -57 43q0 42 57 42h112v497h-112q-57 0 -57 43q0 42 57 42h197v-582h85v161q0 56 43 56q42 0 42 -56v-200z" />
    <glyph glyph-name="two" unicode="2" 
d="M522 43q0 -43 -57 -43h-367v290q0 37 24.5 61.5t61.5 24.5h252v206h-281q-57 0 -57 43q0 42 57 42h281q37 0 61.5 -25.5t24.5 -63.5v-202q0 -37 -24.5 -61.5t-61.5 -24.5h-252v-205h281q57 0 57 -42z" />
    <glyph glyph-name="three" unicode="3" 
d="M521 85q0 -36 -25 -60.5t-61 -24.5h-281q-57 0 -57 43q0 42 57 42h281v154q0 51 -46 51h-150q-57 0 -57 42q0 43 57 43h151q43 0 43 53v154h-279q-57 0 -57 43q0 42 57 42h281q34 0 59 -22t25 -52v-186q0 -43 -32 -74q34 -37 34 -87v-161z" />
    <glyph glyph-name="four" unicode="4" 
d="M524 261q0 -17 -12 -30t-27 -13h-4v-161q0 -57 -42 -57q-43 0 -43 57v161h-255v392q0 57 43 57t43 -57v-307h169v233q0 57 43 57q42 0 42 -57v-233q43 -6 43 -42z" />
    <glyph glyph-name="five" unicode="5" 
d="M521 85q0 -35 -25 -60t-60 -25h-196q-27 0 -52 11l-52 23q-39 17 -39 44q0 17 12.5 29.5t28.5 12.5q11 0 32 -9l46 -20q14 -6 34 -6h186v205h-254v377h282q57 0 57 -42q0 -43 -57 -43h-197v-207h169q36 0 60.5 -24.5t24.5 -60.5v-205z" />
    <glyph glyph-name="six" unicode="6" 
d="M522 44q0 -44 -45 -44h-335q-18 0 -31 12.5t-13 31.5v582q0 17 12 29t29 12h44q18 0 30.5 -12.5t12.5 -30.5q0 -37 -43 -42v-277h298q41 0 41 -46v-215zM437 85v135h-254v-135h254z" />
    <glyph glyph-name="seven" unicode="7" 
d="M522 409q0 -23 -16 -37l-136 -117q-16 -14 -16 -35v-162q0 -57 -42 -57q-43 0 -43 56v204q0 20 14 32l134 116q20 17 20 44v129h-255q-6 -38 -41 -38q-43 0 -43 49v25q0 49 45 49h379v-258z" />
    <glyph glyph-name="eight" unicode="8" 
d="M522 85q0 -35 -25 -60t-60 -25h-257q-32 0 -57 24.5t-25 55.5v210q0 35 24 58.5t61 26.5v246q0 46 43 46h168q19 0 31 -13t12 -33v-246q85 -9 85 -90v-200zM352 375v207h-84v-207h84zM437 85v205h-254v-205h254z" />
    <glyph glyph-name="nine" unicode="9" 
d="M522 41q0 -17 -12 -29t-29 -12h-44q-18 0 -30.5 12.5t-12.5 30.5q0 37 43 42v277h-298q-41 0 -41 46v215q0 44 45 44h335q19 0 31.5 -12.5t12.5 -31.5v-582zM437 447v135h-254v-135h254z" />
    <glyph glyph-name="colon" unicode=":" 
d="M396 442q0 -45 -45 -45h-82q-43 0 -43 43v71q0 19 12.5 31.5t31.5 12.5h81q45 0 45 -44v-69zM396 152q0 -45 -45 -45h-82q-43 0 -43 43v71q0 19 12.5 31.5t31.5 12.5h81q45 0 45 -44v-69z" />
    <glyph glyph-name="semicolon" unicode=";" 
d="M354 481q0 -45 -45 -45h-82q-43 0 -43 43v71q0 19 12.5 31.5t31.5 12.5h81q45 0 45 -44v-69zM438 56q0 -56 -42 -56q-43 0 -43 56v160h-113q-56 0 -56 43q0 42 56 42h156q18 0 30 -12.5t12 -30.5v-202z" />
    <glyph glyph-name="less" unicode="&#x3c;" 
d="M543 106q0 -19 -13.5 -33t-32.5 -14q-14 0 -40 17l-357 237q-23 15 -23 40t24 41l356 237q26 17 40 17q19 0 32.5 -14t13.5 -33q0 -24 -34 -47l-302 -201l302 -200q34 -23 34 -47z" />
    <glyph glyph-name="equal" unicode="=" 
d="M522 442q0 -43 -57 -43h-310q-57 0 -57 43q0 42 57 42h310q57 0 57 -42zM522 260q0 -43 -57 -43h-310q-57 0 -57 43q0 42 57 42h310q57 0 57 -42z" />
    <glyph glyph-name="greater" unicode="&#x3e;" 
d="M543 353q0 -25 -23 -40l-358 -237q-26 -17 -40 -17q-18 0 -31.5 14t-13.5 33q0 24 34 47l301 200l-301 201q-34 23 -34 47q0 19 13.5 33t32.5 14q13 0 39 -17l357 -237q24 -16 24 -41z" />
    <glyph glyph-name="question" unicode="?" 
d="M521 480q0 -21 -18 -37l-235 -203v-38q0 -56 -42 -56q-43 0 -43 56v60q0 17 17 32l236 204v32l-42 37l-214 -184q-23 -20 -39 -20q-18 0 -30.5 13t-12.5 31q0 19 26 41l243 207q13 11 27 11t27 -11l86 -73q14 -12 14 -34v-68zM268 42q0 -18 -12.5 -30.5t-30.5 -12.5
q-17 0 -29.5 12.5t-12.5 29.5q0 18 12.5 30.5t29.5 12.5q18 0 30.5 -12.5t12.5 -29.5z" />
    <glyph glyph-name="at" unicode="@" 
d="M514 137q0 -63 -33 -97q-39 -40 -88 -40q-46 0 -83 34q-38 -32 -82 -32q-51 0 -87 38t-36 91v153q0 57 39 93q36 33 101 33h38q44 0 56 -12t12 -56v-203q0 -55 41 -55q23 0 31.5 14t8.5 51v353q0 83 -72 83h-108q-27 0 -40 -8t-26 -33q-16 -30 -40 -30q-17 0 -29 11
t-12 27q0 20 17 45.5t41 42.5q38 27 92 27h96q68 0 115.5 -43t47.5 -105v-382zM269 138l-2 191h-28q-52 0 -52 -49v-138q0 -58 42 -58q41 0 40 54z" />
    <glyph glyph-name="A" unicode="A" 
d="M521 41q0 -17 -12.5 -29.5t-29.5 -12.5q-31 0 -44 45l-30 100h-190l-29 -100q-13 -45 -45 -45q-17 0 -29.5 12.5t-12.5 29.5q0 10 5 27l166 565q10 33 41 33t41 -33l164 -565q5 -17 5 -27zM381 229l-71 241l-70 -241h141z" />
    <glyph glyph-name="B" unicode="B" 
d="M523 178q0 -78 -49 -128t-125 -50h-250v667h254q77 0 123.5 -52t46.5 -137q0 -95 -57 -146q33 -32 45 -64t12 -90zM438 481q0 101 -93 101h-161v-207h162q92 0 92 106zM438 188q0 102 -94 102h-160v-205h162q92 0 92 103z" />
    <glyph glyph-name="C" unicode="C" 
d="M522 43q0 -43 -56 -43h-149q-76 0 -112 72l-88 178q-19 38 -19 83q0 46 19 84l88 178q36 72 117 72h144q56 0 56 -42q0 -43 -56 -43h-141q-31 0 -44 -26l-84 -169q-13 -26 -13 -55q0 -25 13 -51l82 -167q15 -29 49 -29h138q56 0 56 -42z" />
    <glyph glyph-name="D" unicode="D" 
d="M521 336q0 -50 -20 -90l-87 -175q-35 -71 -121 -71h-139q-57 0 -57 43q0 42 57 42h28v497h-28q-57 0 -57 43q0 42 57 42h147q78 0 115 -75l84 -171q21 -43 21 -85zM436 333q0 24 -17 58l-81 164q-13 27 -44 27h-27v-497h29q31 0 44 27l84 172q12 25 12 49z" />
    <glyph glyph-name="E" unicode="E" 
d="M522 43q0 -43 -57 -43h-367v667h367q57 0 57 -42q0 -43 -57 -43h-282v-207h114q57 0 57 -42q0 -43 -57 -43h-114v-205h282q57 0 57 -42z" />
    <glyph glyph-name="F" unicode="F" 
d="M522 625q0 -43 -57 -43h-282v-135h196q57 0 57 -43t-57 -43h-196v-304q0 -57 -42 -57q-43 0 -43 47v620h367q57 0 57 -42z" />
    <glyph glyph-name="G" unicode="G" 
d="M523 124q0 -50 -38 -87t-89 -37h-169q-55 0 -91.5 37t-36.5 92v235q0 57 39 107l113 146q39 50 104 50h110q57 0 57 -42q0 -43 -57 -43h-99q-25 0 -32.5 -3.5t-22.5 -23.5l-106 -137q-21 -27 -21 -65v-217q0 -51 50 -51h157q47 0 47 51v81h-71q-57 0 -57 42q0 43 57 43
h156v-178z" />
    <glyph glyph-name="H" unicode="H" 
d="M522 56q0 -56 -43 -56q-42 0 -42 56v233h-254v-232q0 -57 -42 -57q-43 0 -43 57v553q0 57 43 57q42 0 42 -57v-235h254v235q0 57 42 57q43 0 43 -57v-554z" />
    <glyph glyph-name="I" unicode="I" 
d="M522 43q0 -43 -57 -43h-308q-57 0 -57 43q0 42 57 42h111v497h-113q-57 0 -57 43q0 42 57 42h310q57 0 57 -42q0 -43 -57 -43h-112v-497h112q57 0 57 -42z" />
    <glyph glyph-name="J" unicode="J" 
d="M478 135q0 -60 -36.5 -97.5t-95.5 -37.5h-72q-59 0 -97 35.5t-38 90.5v119q0 57 43 57q42 0 42 -57v-107q0 -53 50 -53h69q50 0 50 50v474q0 57 42 57q43 0 43 -57v-474z" />
    <glyph glyph-name="K" unicode="K" 
d="M524 43q0 -18 -12.5 -31t-30.5 -13q-14 0 -39 21l-258 221v-184q0 -57 -42 -57q-43 0 -43 57v553q0 57 43 57q42 0 42 -57v-183l259 220q25 21 38 21q18 0 30.5 -13t12.5 -31q0 -19 -26 -41l-291 -249l291 -250q26 -22 26 -41z" />
    <glyph glyph-name="L" unicode="L" 
d="M521 43q0 -43 -57 -43h-365v609q0 57 42 57q43 0 43 -57v-524h280q57 0 57 -42z" />
    <glyph glyph-name="M" unicode="M" 
d="M522 57q0 -57 -43 -57q-42 0 -42 57v492l-85 -121v-8q0 -57 -42 -57q-43 0 -43 57v8l-84 121v-492q0 -57 -42 -57q-43 0 -43 57v610h108l104 -151l104 151h108v-610z" />
    <glyph glyph-name="N" unicode="N" 
d="M522 0h-113l-226 514v-457q0 -57 -42 -57q-43 0 -43 57v610h113l226 -520v463q0 57 42 57q43 0 43 -57v-610z" />
    <glyph glyph-name="O" unicode="O" 
d="M522 333q0 -46 -24 -94l-88 -177q-13 -27 -41 -44.5t-58 -17.5q-69 0 -102 65l-89 177q-22 44 -22 92q0 45 19 83l92 186q32 64 103 64q29 0 56.5 -17t40.5 -43l95 -190q18 -36 18 -84zM437 334q0 26 -16 58l-87 174q-7 15 -24 15q-18 0 -25 -15l-85 -171
q-17 -34 -17 -62q0 -25 17 -60l83 -167q10 -20 28 -20q15 0 24 17l91 181q11 22 11 50z" />
    <glyph glyph-name="P" unicode="P" 
d="M523 393q0 -66 -37 -103t-103 -37h-200v-196q0 -56 -42 -56q-19 0 -31 12.5t-12 32.5v621h296q58 0 93.5 -37t35.5 -99v-138zM438 393v138q0 51 -52 51h-203v-244h206q49 0 49 55z" />
    <glyph glyph-name="Q" unicode="Q" 
d="M522 43q0 -43 -47 -43h-109l-31 78l-64 -55q-27 -23 -70 -23t-73 30.5t-30 74.5v246q0 73 61 125l191 163q32 27 67 27q42 0 73.5 -30.5t31.5 -70.5v-247q0 -80 -60 -131l-59 -50l21 -52h54q19 0 31.5 -12t12.5 -30zM437 323v234q0 23 -19 23q-5 0 -16 -7l-188 -162
q-31 -27 -31 -63v-243q0 -20 20 -20q10 0 17 6l82 71l-26 67q-8 21 -8 31q0 16 12.5 28t29.5 12q30 0 41 -29l19 -50l36 30q31 26 31 72z" />
    <glyph glyph-name="R" unicode="R" 
d="M523 41q0 -16 -13 -28.5t-30 -12.5q-23 0 -43 29l-233 333h-20v-305q0 -57 -42 -57q-43 0 -43 47v620h298q53 0 89.5 -39t36.5 -95v-38q0 -59 -37.5 -96t-96.5 -37h-81l199 -285q16 -23 16 -36zM438 495v33q0 54 -53 54h-201v-135h201q53 0 53 48z" />
    <glyph glyph-name="S" unicode="S" 
d="M522 96q0 -40 -28.5 -68t-69.5 -28h-210q-46 0 -80.5 32t-34.5 74q0 49 44 49q35 0 41 -48q3 -22 27 -22h207q18 0 18 10q0 5 -9 17l-307 396q-22 28 -22 62q0 43 29.5 70t76.5 27h203q45 0 79.5 -33.5t34.5 -76.5q0 -49 -42 -49q-38 0 -43 48q-3 26 -31 26h-203
q-18 0 -18 -12q0 -6 7 -15l307 -396q24 -31 24 -63z" />
    <glyph glyph-name="T" unicode="T" 
d="M522 556q0 -47 -42 -47q-43 0 -43 57v16h-85v-534q0 -47 -42 -47q-43 0 -43 57v524h-84v-17q0 -56 -42 -56q-43 0 -43 56v102h424v-111z" />
    <glyph glyph-name="U" unicode="U" 
d="M522 135q0 -59 -36.5 -97t-92.5 -38h-168q-54 0 -90.5 37.5t-36.5 93.5v478q0 57 43 57q42 0 42 -57v-474q0 -50 48 -50h157q49 0 49 46v479q0 56 43 56q42 0 42 -56v-475z" />
    <glyph glyph-name="V" unicode="V" 
d="M522 493q0 -22 -8 -43l-163 -422q-11 -28 -40 -28q-30 0 -41 28l-164 422q-3 6 -3 9q-5 12 -5 34v117q0 57 43 57q42 0 42 -57v-123l127 -327l127 327v124q0 56 43 56q42 0 42 -56v-118z" />
    <glyph glyph-name="W" unicode="W" 
d="M522 116q0 -12 -7 -24l-41 -71q-12 -21 -36 -21h-87q-33 0 -42 37q-11 -37 -43 -37h-84q-24 0 -36 21l-44 74q-5 8 -5 21v494q0 56 43 56q42 0 42 -56v-483l24 -42h36l24 42v264q0 56 43 56q42 0 42 -56v-264l24 -42h37l25 42v483q0 56 43 56q42 0 42 -56v-494z" />
    <glyph glyph-name="X" unicode="X" 
d="M522 41q0 -16 -12.5 -28.5t-29.5 -12.5q-25 0 -45 34l-125 214l-125 -214q-20 -34 -45 -34q-16 0 -29 12.5t-13 28.5q0 14 13 36l150 256l-150 257q-13 22 -13 36q0 16 12.5 28.5t29.5 12.5q24 0 44 -34l126 -215l125 215q20 34 45 34q17 0 29.5 -12.5t12.5 -28.5
q0 -14 -13 -36l-149 -257l149 -256q13 -22 13 -36z" />
    <glyph glyph-name="Y" unicode="Y" 
d="M522 537l-170 -219v-261q0 -57 -42 -57q-43 0 -43 57v261l-169 219v73q0 57 43 57q42 0 42 -57v-44l127 -164l127 164v44q0 57 43 57q42 0 42 -57v-73z" />
    <glyph glyph-name="Z" unicode="Z" 
d="M522 612l-308 -527h259q48 0 48 -42q0 -43 -57 -43h-366v54l307 528h-250q-57 0 -57 43q0 42 57 42h367v-55z" />
    <glyph glyph-name="bracketleft" unicode="[" 
d="M523 43q0 -43 -57 -43h-301q-44 0 -56 12t-12 56v531q0 38 6 50q10 18 44 18h319q57 0 57 -42q0 -43 -57 -43h-153v-497h153q57 0 57 -42zM228 85v497h-46v-497h46z" />
    <glyph glyph-name="backslash" unicode="\" 
d="M522 41q0 -16 -12.5 -28.5t-29.5 -12.5q-24 0 -44 34l-324 556q-13 23 -13 36q0 16 12.5 28.5t29.5 12.5q24 0 44 -34l325 -556q12 -21 12 -36z" />
    <glyph glyph-name="bracketright" unicode="]" 
d="M522 69q0 -45 -12 -57t-56 -12h-300q-57 0 -57 43t57 43h153v496h-153q-57 0 -57 42q0 43 57 43h300q44 0 56 -12t12 -56v-530zM437 86v496h-45v-496h45z" />
    <glyph glyph-name="asciicircum" unicode="^" 
d="M510 322q0 -16 -11 -26.5t-27 -10.5q-22 0 -36 20l-126 185l-127 -185q-14 -20 -35 -20q-17 0 -28 10.5t-11 26.5q0 12 10 31l149 283q16 31 42 31q25 0 41 -31l149 -283q10 -19 10 -31z" />
    <glyph glyph-name="underscore" unicode="_" 
d="M588 -130q0 -43 -57 -43h-442q-57 0 -57 43q0 42 57 42h442q57 0 57 -42z" />
    <glyph glyph-name="grave" unicode="`" 
d="M357 578q0 -19 -13 -32.5t-30 -13.5q-13 0 -33 13l-56 37q-29 19 -29 40q0 19 13 32.5t30 13.5q13 0 33 -13l57 -37q28 -18 28 -40z" />
    <glyph glyph-name="a" unicode="a" 
d="M512 48q2 -48 -39 -48q-40 0 -42 41l-66 -33q-16 -8 -31 -8h-100q-54 0 -90 34.5t-36 85.5v57q0 46 37 79t89 33h147q13 0 41 -3l-2 44q-2 50 -61 50h-101q-39 0 -53.5 9t-14.5 32q0 41 50 41h130q59 0 94.5 -33.5t37.5 -90.5zM427 129l-2 31q-3 47 -47 47h-143
q-45 0 -45 -41v-44q0 -17 12.5 -28.5t30.5 -11.5h101z" />
    <glyph glyph-name="b" unicode="b" 
d="M512 138q0 -47 -37 -78l-45 -38q-26 -22 -83 -22h-42q-51 0 -81 28l-34 32v-13q0 -47 -41 -47q-24 0 -36 20q-5 8 -5 48v495q0 42 8 53q14 16 33 16q23 0 36 -21q5 -8 5 -48v-161l34 32q30 28 81 28h42q57 0 83 -22l45 -38q37 -31 37 -78v-186zM430 170v122q0 41 -13 51
l-31 25q-15 12 -30 12h-45q-23 0 -40 -14l-63 -53q-13 -11 -15.5 -17.5t-2.5 -31.5v-66q0 -25 2.5 -31.5t15.5 -17.5l63 -53q17 -14 40 -14h45q15 0 30 12l31 25q13 10 13 51z" />
    <glyph glyph-name="c" unicode="c" 
d="M515 41q0 -24 -20 -36q-8 -5 -48 -5h-134q-56 0 -87 26l-77 65q-41 35 -41 91v99q0 55 41 90l77 66q29 25 87 25h134q41 0 52 -8q16 -14 16 -33q0 -23 -15 -32t-53 -9h-136q-23 0 -40 -14l-67 -56q-14 -12 -14 -43v-72q0 -31 14 -43l67 -56q17 -14 40 -14h136q41 0 52 -9
q16 -13 16 -32z" />
    <glyph glyph-name="d" unicode="d" 
d="M512 68q0 -41 -8 -52q-14 -16 -33 -16q-41 0 -41 47v13l-34 -32q-30 -28 -81 -28h-42q-57 0 -83 22l-45 38q-37 31 -37 78v186q0 47 37 78l45 38q26 22 83 22h42q51 0 81 -28l34 -32v161q0 42 9 53q13 16 32 16q23 0 36 -21q5 -8 5 -48v-495zM430 198v66q0 25 -2.5 31.5
t-15.5 17.5l-63 53q-17 14 -40 14h-45q-15 0 -30 -12l-31 -25q-13 -10 -13 -51v-122q0 -41 13 -51l31 -25q15 -12 30 -12h45q23 0 40 14l63 53q13 11 15.5 17.5t2.5 31.5z" />
    <glyph glyph-name="e" unicode="e" 
d="M511 41q0 -23 -14.5 -32t-53.5 -9h-173q-58 0 -77 16l-51 44q-22 19 -29 44q-5 18 -5 55v156q0 52 32 80l46 40q31 27 88 27h80q43 0 72 -23l50 -40q35 -28 35 -90v-70q0 -44 -12 -56t-56 -12h-253v-19q0 -24 13 -34l24 -23q14 -13 40 -13h176q41 0 52 -8q16 -14 16 -33z
M429 253v56q0 24 -12 34l-26 22q-18 15 -34 15h-90q-21 0 -35 -12l-25 -21q-17 -14 -17 -44v-50h239z" />
    <glyph glyph-name="f" unicode="f" 
d="M512 591q0 -23 -21 -36q-8 -5 -48 -5h-64q-68 0 -68 -60v-28h61q41 0 52 -8q16 -14 16 -33q0 -24 -20 -36q-8 -5 -48 -5h-61v-312q0 -41 -8 -52q-12 -16 -33 -16q-24 0 -36 20q-5 8 -5 48v312h-12q-39 0 -53.5 9t-14.5 32t15 32t53 9h12v28q0 67 41 104.5t114 37.5h59
q42 0 53 -8q16 -14 16 -33z" />
    <glyph glyph-name="g" unicode="g" 
d="M512 -8q0 -48 -5.5 -65t-27.5 -36l-43 -37q-34 -29 -84 -29h-136q-41 0 -52 8q-16 14 -16 33q0 41 50 41h149q24 0 39 12l33 26q11 9 11 43v105l-36 -33q-18 -16 -31 -20.5t-43 -4.5h-60q-46 0 -66 17l-46 40q-40 35 -40 81v145q0 56 40 87l37 29q36 28 76 28h56
q39 0 70 -24l43 -33q0 57 41 57q24 0 36 -20q5 -8 5 -48v-402zM430 220v57q0 22 -20 38l-62 50q-19 15 -33 15h-51q-20 0 -33 -11l-30 -26q-11 -10 -11 -40v-109q0 -30 11 -40l30 -26q13 -11 33 -11h51q14 0 33 15l62 50q20 16 20 38z" />
    <glyph glyph-name="h" unicode="h" 
d="M512 48q3 -48 -40 -48q-25 0 -36 20q-6 11 -7 47l-5 252q-1 34 -11.5 47.5t-36.5 13.5h-28q-23 0 -42 -12l-116 -72v-228q0 -38 -9 -53t-32 -15q-24 0 -36 20q-5 8 -5 48v495q0 42 8 53q14 16 33 16q23 0 36 -21q5 -8 5 -48v-172l76 49q34 22 72 22h45q119 0 122 -131
l6 -269q1 -7 1 -14z" />
    <glyph glyph-name="i" unicode="i" 
d="M353 597q0 -47 -49 -47h-14q-36 0 -49.5 10t-13.5 37v11q0 33 10.5 46t37.5 13h15q50 0 58 -21q5 -11 5 -38v-11zM472 41q0 -23 -21 -36q-8 -5 -48 -5h-185q-42 0 -53 8q-16 14 -16 33q0 23 21 36q8 5 48 5h53v298h-53q-42 0 -53 8q-16 14 -16 33q0 41 50 41h86
q44 0 56 -12t12 -56v-312h50q42 0 53 -8q16 -14 16 -33z" />
    <glyph glyph-name="j" unicode="j" 
d="M471 620q0 -37 -3 -45q-9 -25 -45 -25h-14q-36 0 -49.5 10t-13.5 37v11q0 33 10.5 46t37.5 13h15q35 0 48.5 -10t13.5 -37zM471 -33q0 -142 -136 -142h-64q-49 0 -86.5 33.5t-37.5 76.5q0 16 12.5 28t29.5 12q32 0 42 -34t42 -34h71q28 0 38 16q7 12 7 44v413h-88
q-42 0 -53 8q-16 14 -16 33q0 41 50 41h121q44 0 56 -12t12 -56v-427z" />
    <glyph glyph-name="k" unicode="k" 
d="M512 42q0 -17 -12.5 -29.5t-29.5 -12.5q-14 0 -47 27l-199 165l-34 -31v-93q0 -38 -9 -53t-32 -15q-24 0 -36 20q-5 8 -5 48v495q0 42 8 53q14 16 33 16q23 0 36 -21q5 -8 5 -48v-293l197 166q31 26 46 26q17 0 29.5 -12t12.5 -29q0 -13 -5.5 -20.5t-30.5 -28.5
l-151 -125l188 -156q25 -21 30.5 -28.5t5.5 -20.5z" />
    <glyph glyph-name="l" unicode="l" 
d="M472 41q0 -23 -21 -36q-8 -5 -48 -5h-186q-41 0 -52 8q-16 14 -16 33q0 23 21 36q8 5 47 5h54v468h-54q-41 0 -52 8q-16 14 -16 33q0 23 21 36q8 5 47 5h68q44 0 56 -12t12 -56v-482h50q42 0 53 -8q16 -14 16 -33z" />
    <glyph glyph-name="m" unicode="m" 
d="M512 48q0 -48 -40 -48q-28 0 -37 21q-5 13 -6 46l-8 271q-1 32 -18 32q-7 0 -16 -9l-37 -37v-256q0 -41 -8 -52q-12 -16 -33 -16q-24 0 -36 20q-5 8 -5 48v274q0 29 -19 29q-7 0 -14 -6l-45 -41v-256q0 -41 -8 -52q-14 -16 -33 -16q-24 0 -36 20q-5 8 -5 48v346
q0 48 42 48q30 0 40 -33l18 15q22 18 52 18q44 0 75 -41l18 18q23 23 60 23q87 0 90 -105z" />
    <glyph glyph-name="n" unicode="n" 
d="M512 48q3 -48 -40 -48q-24 0 -36 20q-6 10 -7 47l-5 252q-1 34 -11.5 47.5t-36.5 13.5h-27q-24 0 -43 -12l-116 -72v-228q0 -41 -8 -52q-14 -16 -33 -16q-24 0 -36 20q-5 8 -5 48v326q0 41 8 52q14 16 33 16q41 0 41 -60v-11l76 49q34 22 72 22h45q119 0 122 -131l6 -269
q1 -7 1 -14z" />
    <glyph glyph-name="o" unicode="o" 
d="M511 143q0 -54 -38 -85l-32 -26q-39 -32 -88 -32h-87q-49 0 -88 32l-32 26q-38 31 -38 85v176q0 54 38 85l32 26q39 32 88 32h87q49 0 88 -32l32 -26q38 -31 38 -85v-176zM429 153v156q0 25 -17 38l-23 18q-20 15 -47 15h-65q-27 0 -47 -15l-23 -18q-17 -13 -17 -38v-156
q0 -25 17 -38l23 -18q19 -15 47 -15h65q27 0 47 15l23 18q17 13 17 38z" />
    <glyph glyph-name="p" unicode="p" 
d="M511 167q0 -67 -45 -102l-66 -52q-39 -31 -80 -31h-20q-39 0 -78 35l-32 29v-154q0 -41 -8 -52q-14 -16 -33 -16q-24 0 -36 20q-5 8 -5 48v502q0 41 8 52q14 16 33 16q41 0 41 -47v-17l32 29q23 21 37.5 28t40.5 7h20q41 0 80 -31l66 -52q45 -35 45 -102v-110zM429 174
v96q0 28 -15 41l-72 61q-9 8 -23 8h-14q-14 0 -32 -17l-67 -63q-16 -15 -16 -38v-80q0 -22 16 -37l67 -64q18 -17 32 -17h14q14 0 23 8l72 61q15 13 15 41z" />
    <glyph glyph-name="q" unicode="q" 
d="M512 -107q0 -41 -8 -52q-14 -16 -33 -16q-23 0 -32 14.5t-9 53.5v167l-34 -32q-30 -28 -81 -28h-42q-57 0 -83 22l-45 38q-37 31 -37 78v186q0 47 37 78l45 38q26 22 83 22h42q51 0 81 -28l34 -32v13q0 47 41 47q24 0 36 -20q5 -8 5 -48v-501zM430 198v66q0 25 -2.5 31.5
t-15.5 17.5l-63 53q-17 14 -40 14h-45q-15 0 -30 -12l-31 -25q-13 -10 -13 -51v-122q0 -41 13 -51l31 -25q15 -12 30 -12h45q23 0 40 14l63 53q13 11 15.5 17.5t2.5 31.5z" />
    <glyph glyph-name="r" unicode="r" 
d="M512 335q0 -56 -41 -56t-41 46v10q0 45 -43 45h-33q-24 0 -41 -14l-123 -101v-197q0 -38 -9 -53t-32 -15q-24 0 -36 20q-5 8 -5 48v326q0 41 8 52q14 16 33 16q24 0 36 -20q5 -8 5 -48v-20l73 59q36 29 83 29h37q60 0 94.5 -34t34.5 -93z" />
    <glyph glyph-name="s" unicode="s" 
d="M512 121q0 -53 -35.5 -87t-90.5 -34h-148q-60 0 -84 19l-20 16q-26 21 -26 39q0 17 12.5 29t30.5 12q17 0 35 -18q12 -15 52 -15h132q55 0 55 45q0 24 -30 38l-213 97q-64 29 -64 96q0 47 32.5 75.5t87.5 28.5h146q52 0 75 -20l23 -20q19 -17 19 -35q0 -17 -12.5 -29
t-29.5 -12q-19 0 -39 23q-9 11 -36 11h-146q-34 0 -34 -24q0 -14 28 -27l208 -94q72 -33 72 -114z" />
    <glyph glyph-name="t" unicode="t" 
d="M511 111q0 -33 -29 -69q-34 -42 -102 -42h-63q-69 0 -107 57q-19 28 -19 88v235h-15q-41 0 -52 8q-16 14 -16 33q0 41 50 41h33v72q0 39 9 53.5t32 14.5q24 0 36 -20q5 -8 5 -48v-72h127q41 0 52 -8q16 -14 16 -33q0 -24 -20 -36q-8 -5 -48 -5h-127v-235q0 -63 44 -63h64
q36 0 45.5 35t44.5 35q16 0 28 -12.5t12 -28.5z" />
    <glyph glyph-name="u" unicode="u" 
d="M512 68q0 -41 -8 -52q-14 -16 -33 -16q-41 0 -41 64v7l-76 -49q-34 -22 -72 -22h-45q-119 0 -122 131l-7 283q0 48 40 48q28 0 37 -20q5 -13 6 -47l5 -253q1 -34 11.5 -47t36.5 -13h27q24 0 43 12l116 72v228q0 41 8 52q14 16 33 16q24 0 36 -20q5 -8 5 -48v-326z" />
    <glyph glyph-name="v" unicode="v" 
d="M512 355q0 -11 -15 -44l-122 -269q-19 -42 -44 -42h-42q-25 0 -44 42l-122 269q-14 30 -14.5 33t-0.5 36v23q0 59 41 59q24 0 36 -20q5 -8 5 -48v-35l120 -273l120 273v35q0 41 8 52q14 16 33 16q41 0 41 -59v-48z" />
    <glyph glyph-name="w" unicode="w" 
d="M512 415l-1 -23l-7 -218l-45 -132q-8 -24 -13 -30q-10 -12 -29 -12h-22q-16 0 -23 5t-22 28l-40 60l-40 -60q-15 -23 -22 -28t-23 -5h-22q-19 0 -29 12q-5 6 -13 30l-45 132l-8 241q0 47 39 47q29 0 38 -21q5 -12 6 -46l7 -205l26 -76l45 76v65q0 41 8 52q14 16 33 16
q23 0 32 -14.5t9 -53.5v-65l45 -76l26 76l7 205q1 34 6 46q10 21 38 21q41 0 39 -47z" />
    <glyph glyph-name="x" unicode="x" 
d="M512 43q0 -18 -12.5 -30.5t-29.5 -12.5q-20 0 -49 35l-111 136l-111 -136q-29 -35 -49 -35q-17 0 -29.5 13t-12.5 30q0 12 28 46l118 142l-118 142q-6 6 -12 13q-16 19 -16 33q0 18 12.5 30.5t29.5 12.5q20 0 49 -35l111 -136l111 136q29 35 49 35q17 0 29.5 -12.5
t12.5 -29.5q0 -15 -16 -34q-6 -7 -12 -13l-119 -142l119 -142q6 -6 12 -13q16 -19 16 -33z" />
    <glyph glyph-name="y" unicode="y" 
d="M512 379q0 -33 -0.5 -36.5t-14.5 -32.5l-208 -451q-9 -20 -19 -27t-32 -7h-62q-41 0 -52 9q-16 13 -16 32q0 41 50 41h63l61 127h-11q-23 0 -38 34l-110 242q-14 30 -14.5 33.5t-0.5 35.5v24q0 59 41 59q24 0 36 -20q5 -8 5 -48v-36l111 -242h18l111 242v36q0 41 8 52
q14 16 33 16q41 0 41 -59v-24z" />
    <glyph glyph-name="z" unicode="z" 
d="M512 41q0 -23 -21 -36q-8 -5 -48 -5h-267q-44 0 -56 12t-12 56v4q0 16 3 22t20 22l276 264h-208q-41 0 -52 8q-16 14 -16 33q0 41 50 41h262q43 0 56 -11t13 -49v-13q0 -21 -17 -37l-284 -270h232q42 0 53 -8q16 -14 16 -33z" />
    <glyph glyph-name="braceleft" unicode="{" 
d="M523 43q0 -43 -57 -43h-113q-35 0 -60 25t-25 60v159q0 45 -47 45h-64q-57 0 -57 43t57 43h65q46 0 46 50v157q0 36 24.5 60.5t60.5 24.5h113q57 0 57 -42q0 -43 -57 -43h-113v-165q0 -49 -33 -85q33 -36 33 -84v-163h113q57 0 57 -42z" />
    <glyph glyph-name="bar" unicode="|" 
d="M352 -162h-85v906h85v-906z" />
    <glyph glyph-name="braceright" unicode="}" 
d="M523 332q0 -43 -57 -43h-64q-47 0 -47 -45v-159q0 -35 -25 -60t-60 -25h-113q-57 0 -57 43q0 42 57 42h113v163q0 48 33 84q-33 36 -33 85v165h-113q-57 0 -57 43q0 42 57 42h113q36 0 60.5 -24.5t24.5 -60.5v-157q0 -50 46 -50h65q57 0 57 -43z" />
    <glyph glyph-name="Adieresis" unicode="&#xc4;" 
d="M522 567q0 -57 -42 -57q-43 0 -43 57v43q0 57 43 57q42 0 42 -57v-43zM183 567q0 -57 -42 -57q-43 0 -43 57v43q0 57 43 57q42 0 42 -57v-43zM521 42q0 -17 -13 -29.5t-30 -12.5q-27 0 -44 43l-25 65h-197l-26 -66q-17 -42 -44 -42q-17 0 -30 12.5t-13 29.5q0 10 8 31
l163 419q11 28 39 28q31 0 42 -28l162 -419q8 -21 8 -31zM375 193l-65 166l-65 -166h130z" />
    <glyph glyph-name="Aring" unicode="&#xc5;" 
d="M521 40q0 -17 -12.5 -29.5t-29.5 -12.5q-32 0 -45 46l-28 100h-191l-29 -100q-13 -46 -45 -46q-17 0 -29.5 12t-12.5 30q0 10 5 27l107 368q-32 7 -51.5 29.5t-19.5 52.5v64q0 37 24.5 61.5t60.5 24.5h168q37 0 61.5 -24.5t24.5 -61.5v-61q0 -69 -73 -85l110 -368
q5 -17 5 -27zM393 520v62h-168v-62h168zM379 229l-60 206h-20l-59 -206h139z" />
    <glyph glyph-name="Ccedilla" unicode="&#xc7;" 
d="M522 43q0 -43 -56 -43h-149q-76 0 -112 72l-88 178q-19 38 -19 83q0 46 19 84l88 178q36 72 117 72h144q56 0 56 -42q0 -43 -56 -43h-141q-31 0 -44 -26l-84 -169q-13 -26 -13 -55q0 -25 13 -51l82 -167q15 -29 49 -29h138q56 0 56 -42zM457 -84q0 -21 -29 -40l-56 -37
q-20 -13 -33 -13q-17 0 -30 13.5t-13 31.5q0 23 28 41l57 37q20 13 33 13q17 0 30 -13.5t13 -32.5z" />
    <glyph glyph-name="Eacute" unicode="&#xc9;" 
d="M424 622q0 -21 -29 -40l-56 -37q-20 -13 -33 -13q-17 0 -30 13.5t-13 32.5q0 22 28 40l57 37q20 13 33 13q17 0 30 -13.5t13 -32.5zM522 43q0 -43 -57 -43h-367v520h367q57 0 57 -42q0 -43 -57 -43h-282v-133h114q57 0 57 -42q0 -43 -57 -43h-114v-132h282q57 0 57 -42z
" />
    <glyph glyph-name="Ntilde" unicode="&#xd1;" 
d="M480 629q0 -38 -32 -66t-76 -28q-33 0 -64 21q-7 5 -16 11l-14 8q-23 13 -35 13q-15 0 -21 -19q-11 -33 -44 -33q-41 0 -41 37q0 38 31.5 66t75.5 28q35 0 70 -23l23 -15q23 -15 37 -15q15 0 21 19q11 33 44 33q41 0 41 -37zM522 0h-106l-233 381v-324q0 -57 -42 -57
q-43 0 -43 57v463h107l232 -386v329q0 57 42 57q43 0 43 -57v-463z" />
    <glyph glyph-name="Odieresis" unicode="&#xd6;" 
d="M522 565q0 -56 -42 -56q-43 0 -43 56v45q0 57 43 57q42 0 42 -57v-45zM182 565q0 -56 -42 -56q-43 0 -43 56v45q0 57 43 57q42 0 42 -57v-45zM522 257q0 -32 -20 -62l-97 -145q-33 -50 -95 -50q-63 0 -103 60l-87 129q-23 34 -23 69q0 30 18 60l92 153q35 59 103 59
q63 0 100 -59l95 -153q17 -27 17 -61zM437 256q0 9 -7 20l-93 152q-10 17 -28 17t-28 -17l-91 -148q-8 -13 -8 -21t6 -17l93 -141q11 -16 28 -16q18 0 27 13l96 144q5 7 5 14z" />
    <glyph glyph-name="Udieresis" unicode="&#xdc;" 
d="M438 566q0 -57 -42 -57q-43 0 -43 57v44q0 57 43 57q42 0 42 -57v-44zM268 566q0 -57 -42 -57q-43 0 -43 57v44q0 57 43 57q42 0 42 -57v-44zM522 133q0 -56 -36.5 -94.5t-88.5 -38.5h-171q-54 0 -91 38.5t-37 94.5v330q0 57 43 57q42 0 42 -57v-330q0 -48 54 -48h144
q32 0 44 11.5t12 42.5v325q0 56 43 56q42 0 42 -56v-331z" />
    <glyph glyph-name="aacute" unicode="&#xe1;" 
d="M424 622q0 -22 -28 -40l-57 -37q-20 -13 -33 -13q-17 0 -30 13.5t-13 32.5q0 21 29 40l56 37q20 13 33 13q17 0 30 -13.5t13 -32.5zM512 48q2 -48 -39 -48q-40 0 -42 41l-66 -33q-16 -8 -31 -8h-100q-54 0 -90 34.5t-36 85.5v57q0 46 37 79t89 33h147q13 0 41 -3l-2 44
q-2 50 -61 50h-101q-39 0 -53.5 9t-14.5 32q0 41 50 41h130q59 0 94.5 -33.5t37.5 -90.5zM427 129l-2 31q-3 47 -47 47h-143q-45 0 -45 -41v-44q0 -17 12.5 -28.5t30.5 -11.5h101z" />
    <glyph glyph-name="agrave" unicode="&#xe0;" 
d="M357 578q0 -19 -13 -32.5t-30 -13.5q-13 0 -33 13l-56 37q-29 19 -29 40q0 19 13 32.5t30 13.5q13 0 33 -13l57 -37q28 -18 28 -40zM512 48q2 -48 -39 -48q-40 0 -42 41l-66 -33q-16 -8 -31 -8h-100q-54 0 -90 34.5t-36 85.5v57q0 46 37 79t89 33h147q13 0 41 -3l-2 44
q-2 50 -61 50h-101q-39 0 -53.5 9t-14.5 32q0 41 50 41h130q59 0 94.5 -33.5t37.5 -90.5zM427 129l-2 31q-3 47 -47 47h-143q-45 0 -45 -41v-44q0 -17 12.5 -28.5t30.5 -11.5h101z" />
    <glyph glyph-name="acircumflex" unicode="&#xe2;" 
d="M457 578q0 -19 -13 -32.5t-30 -13.5q-12 0 -32 13l-54 35h-35l-54 -35q-20 -13 -33 -13q-17 0 -30 13.5t-13 32.5q0 21 29 40l56 37q18 12 35 12h55q16 0 34 -12l57 -37q28 -18 28 -40zM512 48q2 -48 -39 -48q-40 0 -42 41l-66 -33q-16 -8 -31 -8h-100q-54 0 -90 34.5
t-36 85.5v57q0 46 37 79t89 33h147q13 0 41 -3l-2 44q-2 50 -61 50h-101q-39 0 -53.5 9t-14.5 32q0 41 50 41h130q59 0 94.5 -33.5t37.5 -90.5zM427 129l-2 31q-3 47 -47 47h-143q-45 0 -45 -41v-44q0 -17 12.5 -28.5t30.5 -11.5h101z" />
    <glyph glyph-name="adieresis" unicode="&#xe4;" 
d="M455 592q0 -57 -42 -57q-43 0 -43 57v18q0 57 43 57q42 0 42 -57v-18zM249 592q0 -57 -42 -57q-43 0 -43 57v18q0 57 43 57q42 0 42 -57v-18zM512 48q2 -48 -39 -48q-40 0 -42 41l-66 -33q-16 -8 -31 -8h-100q-54 0 -90 34.5t-36 85.5v57q0 46 37 79t89 33h147
q13 0 41 -3l-2 44q-2 50 -61 50h-101q-39 0 -53.5 9t-14.5 32q0 41 50 41h130q59 0 94.5 -33.5t37.5 -90.5zM427 129l-2 31q-3 47 -47 47h-143q-45 0 -45 -41v-44q0 -17 12.5 -28.5t30.5 -11.5h101z" />
    <glyph glyph-name="atilde" unicode="&#xe3;" 
d="M480 629q0 -38 -32 -66t-76 -28q-33 0 -64 21q-7 5 -16 11l-14 8q-23 13 -35 13q-15 0 -21 -19q-11 -33 -44 -33q-41 0 -41 37q0 38 31.5 66t75.5 28q35 0 70 -23l23 -15q23 -15 37 -15q15 0 21 19q11 33 44 33q41 0 41 -37zM512 48q2 -48 -39 -48q-40 0 -42 41l-66 -33
q-16 -8 -31 -8h-100q-54 0 -90 34.5t-36 85.5v57q0 46 37 79t89 33h147q13 0 41 -3l-2 44q-2 50 -61 50h-101q-39 0 -53.5 9t-14.5 32q0 41 50 41h130q59 0 94.5 -33.5t37.5 -90.5zM427 129l-2 31q-3 47 -47 47h-143q-45 0 -45 -41v-44q0 -17 12.5 -28.5t30.5 -11.5h101z
" />
    <glyph glyph-name="aring" unicode="&#xe5;" 
d="M511 48q0 -48 -39 -48q-40 0 -42 41l-66 -33q-16 -8 -31 -8h-100q-53 0 -89 34.5t-36 85.5v57q0 46 37 79t89 33h146q13 0 41 -3l-2 44q-1 33 -13.5 41.5t-47.5 8.5h-137q-40 0 -54.5 9t-14.5 32q0 41 65 41q-49 23 -49 65v60q0 34 23 57t57 23h145q34 0 57.5 -23
t23.5 -57v-60q0 -24 -17 -45t-44 -30q84 -18 88 -114zM393 528v58h-145v-58h145zM426 129l-1 31q-2 47 -48 47h-142q-45 0 -45 -41v-44q0 -16 12.5 -28t29.5 -12h102z" />
    <glyph glyph-name="ccedilla" unicode="&#xe7;" 
d="M515 41q0 -24 -20 -36q-8 -5 -48 -5h-134q-56 0 -87 26l-77 65q-41 35 -41 91v99q0 55 41 90l77 66q29 25 87 25h134q41 0 52 -8q16 -14 16 -33q0 -23 -15 -32t-53 -9h-136q-23 0 -40 -14l-67 -56q-14 -12 -14 -43v-72q0 -31 14 -43l67 -56q17 -14 40 -14h136q41 0 52 -9
q16 -13 16 -32zM417 -84q0 -21 -29 -40l-56 -37q-20 -13 -33 -13q-17 0 -30 13.5t-13 31.5q0 23 28 41l57 37q20 13 33 13q17 0 30 -13.5t13 -32.5z" />
    <glyph glyph-name="eacute" unicode="&#xe9;" 
d="M424 622q0 -22 -28 -40l-57 -37q-20 -13 -33 -13q-17 0 -30 13.5t-13 32.5q0 21 29 40l56 37q20 13 33 13q17 0 30 -13.5t13 -32.5zM511 41q0 -23 -14.5 -32t-53.5 -9h-173q-58 0 -77 16l-51 44q-22 19 -29 44q-5 18 -5 55v156q0 52 32 80l46 40q31 27 88 27h80
q43 0 72 -23l50 -40q35 -28 35 -90v-70q0 -44 -12 -56t-56 -12h-253v-19q0 -24 13 -34l24 -23q14 -13 40 -13h176q41 0 52 -8q16 -14 16 -33zM429 253v56q0 24 -12 34l-26 22q-18 15 -34 15h-90q-21 0 -35 -12l-25 -21q-17 -14 -17 -44v-50h239z" />
    <glyph glyph-name="egrave" unicode="&#xe8;" 
d="M357 578q0 -19 -13 -32.5t-30 -13.5q-13 0 -33 13l-56 37q-29 19 -29 40q0 19 13 32.5t30 13.5q13 0 33 -13l57 -37q28 -18 28 -40zM511 41q0 -23 -14.5 -32t-53.5 -9h-173q-58 0 -77 16l-51 44q-22 19 -29 44q-5 18 -5 55v156q0 52 32 80l46 40q31 27 88 27h80
q43 0 72 -23l50 -40q35 -28 35 -90v-70q0 -44 -12 -56t-56 -12h-253v-19q0 -24 13 -34l24 -23q14 -13 40 -13h176q41 0 52 -8q16 -14 16 -33zM429 253v56q0 24 -12 34l-26 22q-18 15 -34 15h-90q-21 0 -35 -12l-25 -21q-17 -14 -17 -44v-50h239z" />
    <glyph glyph-name="ecircumflex" unicode="&#xea;" 
d="M457 578q0 -19 -13 -32.5t-30 -13.5q-12 0 -32 13l-54 35h-35l-54 -35q-20 -13 -33 -13q-17 0 -30 13.5t-13 32.5q0 21 29 40l56 37q18 12 35 12h55q16 0 34 -12l57 -37q28 -18 28 -40zM511 41q0 -23 -14.5 -32t-53.5 -9h-173q-58 0 -77 16l-51 44q-22 19 -29 44
q-5 18 -5 55v156q0 52 32 80l46 40q31 27 88 27h80q43 0 72 -23l50 -40q35 -28 35 -90v-70q0 -44 -12 -56t-56 -12h-253v-19q0 -24 13 -34l24 -23q14 -13 40 -13h176q41 0 52 -8q16 -14 16 -33zM429 253v56q0 24 -12 34l-26 22q-18 15 -34 15h-90q-21 0 -35 -12l-25 -21
q-17 -14 -17 -44v-50h239z" />
    <glyph glyph-name="edieresis" unicode="&#xeb;" 
d="M455 592q0 -57 -42 -57q-43 0 -43 57v18q0 57 43 57q42 0 42 -57v-18zM249 592q0 -57 -42 -57q-43 0 -43 57v18q0 57 43 57q42 0 42 -57v-18zM511 41q0 -23 -14.5 -32t-53.5 -9h-173q-58 0 -77 16l-51 44q-22 19 -29 44q-5 18 -5 55v156q0 52 32 80l46 40q31 27 88 27h80
q43 0 72 -23l50 -40q35 -28 35 -90v-70q0 -44 -12 -56t-56 -12h-253v-19q0 -24 13 -34l24 -23q14 -13 40 -13h176q41 0 52 -8q16 -14 16 -33zM429 253v56q0 24 -12 34l-26 22q-18 15 -34 15h-90q-21 0 -35 -12l-25 -21q-17 -14 -17 -44v-50h239z" />
    <glyph glyph-name="iacute" unicode="&#xed;" 
d="M424 622q0 -22 -28 -40l-57 -37q-20 -13 -33 -13q-17 0 -30 13.5t-13 32.5q0 21 29 40l56 37q20 13 33 13q17 0 30 -13.5t13 -32.5zM472 41q0 -23 -14.5 -32t-54.5 -9h-186q-41 0 -52 9q-16 13 -16 32q0 23 21 36q8 5 47 5h54v298h-54q-41 0 -52 8q-16 14 -16 33
q0 23 21 36q8 5 47 5h68q44 0 56 -12t12 -56v-312h50q42 0 53 -8q16 -14 16 -33z" />
    <glyph glyph-name="igrave" unicode="&#xec;" 
d="M357 578q0 -19 -13 -32.5t-30 -13.5q-13 0 -33 13l-56 37q-29 19 -29 40q0 19 13 32.5t30 13.5q13 0 33 -13l57 -37q28 -18 28 -40zM472 41q0 -23 -14.5 -32t-54.5 -9h-186q-41 0 -52 9q-16 13 -16 32q0 23 21 36q8 5 47 5h54v298h-54q-41 0 -52 8q-16 14 -16 33
q0 23 21 36q8 5 47 5h68q44 0 56 -12t12 -56v-312h50q42 0 53 -8q16 -14 16 -33z" />
    <glyph glyph-name="icircumflex" unicode="&#xee;" 
d="M457 578q0 -19 -13 -32.5t-30 -13.5q-12 0 -32 13l-54 35h-35l-54 -35q-20 -13 -33 -13q-17 0 -30 13.5t-13 32.5q0 21 29 40l56 37q18 12 35 12h55q16 0 34 -12l57 -37q28 -18 28 -40zM472 41q0 -23 -14.5 -32t-54.5 -9h-186q-41 0 -52 9q-16 13 -16 32q0 23 21 36
q8 5 47 5h54v298h-54q-41 0 -52 8q-16 14 -16 33q0 23 21 36q8 5 47 5h68q44 0 56 -12t12 -56v-312h50q42 0 53 -8q16 -14 16 -33z" />
    <glyph glyph-name="idieresis" unicode="&#xef;" 
d="M443 592q0 -57 -42 -57q-43 0 -43 57v18q0 57 43 57q42 0 42 -57v-18zM263 592q0 -57 -42 -57q-43 0 -43 57v18q0 57 43 57q42 0 42 -57v-18zM472 41q0 -23 -14.5 -32t-54.5 -9h-186q-41 0 -52 9q-16 13 -16 32q0 23 21 36q8 5 47 5h54v298h-54q-41 0 -52 8
q-16 14 -16 33q0 23 21 36q8 5 47 5h68q44 0 56 -12t12 -56v-312h50q42 0 53 -8q16 -14 16 -33z" />
    <glyph glyph-name="ntilde" unicode="&#xf1;" 
d="M480 629q0 -38 -32 -66t-76 -28q-33 0 -64 21q-7 5 -16 11l-14 8q-23 13 -35 13q-15 0 -21 -19q-11 -33 -44 -33q-41 0 -41 37q0 38 31.5 66t75.5 28q35 0 70 -23l23 -15q23 -15 37 -15q15 0 21 19q11 33 44 33q41 0 41 -37zM512 48q3 -48 -40 -48q-24 0 -36 20
q-6 10 -7 47l-5 252q-1 34 -11.5 47.5t-36.5 13.5h-27q-24 0 -43 -12l-116 -72v-228q0 -41 -8 -52q-14 -16 -33 -16q-24 0 -36 20q-5 8 -5 48v326q0 41 8 52q14 16 33 16q41 0 41 -60v-11l76 49q34 22 72 22h45q119 0 122 -131l6 -269q1 -7 1 -14z" />
    <glyph glyph-name="oacute" unicode="&#xf3;" 
d="M424 622q0 -22 -28 -40l-57 -37q-20 -13 -33 -13q-17 0 -30 13.5t-13 32.5q0 21 29 40l56 37q20 13 33 13q17 0 30 -13.5t13 -32.5zM511 143q0 -54 -38 -85l-32 -26q-39 -32 -88 -32h-87q-49 0 -88 32l-32 26q-38 31 -38 85v176q0 54 38 85l32 26q39 32 88 32h87
q49 0 88 -32l32 -26q38 -31 38 -85v-176zM429 153v156q0 25 -17 38l-23 18q-20 15 -47 15h-65q-27 0 -47 -15l-23 -18q-17 -13 -17 -38v-156q0 -25 17 -38l23 -18q19 -15 47 -15h65q27 0 47 15l23 18q17 13 17 38z" />
    <glyph glyph-name="ograve" unicode="&#xf2;" 
d="M357 578q0 -19 -13 -32.5t-30 -13.5q-13 0 -33 13l-56 37q-29 19 -29 40q0 19 13 32.5t30 13.5q13 0 33 -13l57 -37q28 -18 28 -40zM511 143q0 -54 -38 -85l-32 -26q-39 -32 -88 -32h-87q-49 0 -88 32l-32 26q-38 31 -38 85v176q0 54 38 85l32 26q39 32 88 32h87
q49 0 88 -32l32 -26q38 -31 38 -85v-176zM429 153v156q0 25 -17 38l-23 18q-20 15 -47 15h-65q-27 0 -47 -15l-23 -18q-17 -13 -17 -38v-156q0 -25 17 -38l23 -18q19 -15 47 -15h65q27 0 47 15l23 18q17 13 17 38z" />
    <glyph glyph-name="ocircumflex" unicode="&#xf4;" 
d="M457 578q0 -19 -13 -32.5t-30 -13.5q-12 0 -32 13l-54 35h-35l-54 -35q-20 -13 -33 -13q-17 0 -30 13.5t-13 32.5q0 21 29 40l56 37q18 12 35 12h55q16 0 34 -12l57 -37q28 -18 28 -40zM511 143q0 -54 -38 -85l-32 -26q-39 -32 -88 -32h-87q-49 0 -88 32l-32 26
q-38 31 -38 85v176q0 54 38 85l32 26q39 32 88 32h87q49 0 88 -32l32 -26q38 -31 38 -85v-176zM429 153v156q0 25 -17 38l-23 18q-20 15 -47 15h-65q-27 0 -47 -15l-23 -18q-17 -13 -17 -38v-156q0 -25 17 -38l23 -18q19 -15 47 -15h65q27 0 47 15l23 18q17 13 17 38z" />
    <glyph glyph-name="odieresis" unicode="&#xf6;" 
d="M455 592q0 -57 -42 -57q-43 0 -43 57v18q0 57 43 57q42 0 42 -57v-18zM249 592q0 -57 -42 -57q-43 0 -43 57v18q0 57 43 57q42 0 42 -57v-18zM511 143q0 -54 -38 -85l-32 -26q-39 -32 -88 -32h-87q-49 0 -88 32l-32 26q-38 31 -38 85v176q0 54 38 85l32 26q39 32 88 32
h87q49 0 88 -32l32 -26q38 -31 38 -85v-176zM429 153v156q0 25 -17 38l-23 18q-20 15 -47 15h-65q-27 0 -47 -15l-23 -18q-17 -13 -17 -38v-156q0 -25 17 -38l23 -18q19 -15 47 -15h65q27 0 47 15l23 18q17 13 17 38z" />
    <glyph glyph-name="otilde" unicode="&#xf5;" 
d="M480 629q0 -38 -32 -66t-76 -28q-33 0 -64 21q-7 5 -16 11l-14 8q-23 13 -35 13q-15 0 -21 -19q-11 -33 -44 -33q-41 0 -41 37q0 38 31.5 66t75.5 28q35 0 70 -23l23 -15q23 -15 37 -15q15 0 21 19q11 33 44 33q41 0 41 -37zM511 143q0 -54 -38 -85l-32 -26
q-39 -32 -88 -32h-87q-49 0 -88 32l-32 26q-38 31 -38 85v176q0 54 38 85l32 26q39 32 88 32h87q49 0 88 -32l32 -26q38 -31 38 -85v-176zM429 153v156q0 25 -17 38l-23 18q-20 15 -47 15h-65q-27 0 -47 -15l-23 -18q-17 -13 -17 -38v-156q0 -25 17 -38l23 -18
q19 -15 47 -15h65q27 0 47 15l23 18q17 13 17 38z" />
    <glyph glyph-name="uacute" unicode="&#xfa;" 
d="M424 622q0 -22 -28 -40l-57 -37q-20 -13 -33 -13q-17 0 -30 13.5t-13 32.5q0 21 29 40l56 37q20 13 33 13q17 0 30 -13.5t13 -32.5zM512 68q0 -41 -8 -52q-14 -16 -33 -16q-41 0 -41 64v7l-76 -49q-34 -22 -72 -22h-45q-119 0 -122 131l-7 283q0 48 40 48q28 0 37 -20
q5 -13 6 -47l5 -253q1 -34 11.5 -47t36.5 -13h27q24 0 43 12l116 72v228q0 41 8 52q14 16 33 16q24 0 36 -20q5 -8 5 -48v-326z" />
    <glyph glyph-name="ugrave" unicode="&#xf9;" 
d="M357 578q0 -19 -13 -32.5t-30 -13.5q-13 0 -33 13l-56 37q-29 19 -29 40q0 19 13 32.5t30 13.5q13 0 33 -13l57 -37q28 -18 28 -40zM512 68q0 -41 -8 -52q-14 -16 -33 -16q-41 0 -41 64v7l-76 -49q-34 -22 -72 -22h-45q-119 0 -122 131l-7 283q0 48 40 48q28 0 37 -20
q5 -13 6 -47l5 -253q1 -34 11.5 -47t36.5 -13h27q24 0 43 12l116 72v228q0 41 8 52q14 16 33 16q24 0 36 -20q5 -8 5 -48v-326z" />
    <glyph glyph-name="ucircumflex" unicode="&#xfb;" 
d="M457 578q0 -19 -13 -32.5t-30 -13.5q-12 0 -32 13l-54 35h-35l-54 -35q-20 -13 -33 -13q-17 0 -30 13.5t-13 32.5q0 21 29 40l56 37q18 12 35 12h55q16 0 34 -12l57 -37q28 -18 28 -40zM512 68q0 -41 -8 -52q-14 -16 -33 -16q-41 0 -41 64v7l-76 -49q-34 -22 -72 -22h-45
q-119 0 -122 131l-7 283q0 48 40 48q28 0 37 -20q5 -13 6 -47l5 -253q1 -34 11.5 -47t36.5 -13h27q24 0 43 12l116 72v228q0 41 8 52q14 16 33 16q24 0 36 -20q5 -8 5 -48v-326z" />
    <glyph glyph-name="udieresis" unicode="&#xfc;" 
d="M455 592q0 -57 -42 -57q-43 0 -43 57v18q0 57 43 57q42 0 42 -57v-18zM249 592q0 -57 -42 -57q-43 0 -43 57v18q0 57 43 57q42 0 42 -57v-18zM512 68q0 -41 -8 -52q-14 -16 -33 -16q-41 0 -41 64v7l-76 -49q-34 -22 -72 -22h-45q-119 0 -122 131l-7 283q0 48 40 48
q28 0 37 -20q5 -13 6 -47l5 -253q1 -34 11.5 -47t36.5 -13h27q24 0 43 12l116 72v228q0 41 8 52q14 16 33 16q24 0 36 -20q5 -8 5 -48v-326z" />
    <glyph glyph-name="dagger" unicode="&#x2020;" 
d="M487 456q0 -43 -57 -43h-78v-357q0 -56 -43 -56q-42 0 -42 56v357h-78q-57 0 -57 43t57 43h78v111q0 57 42 57q43 0 43 -57v-111h78q57 0 57 -43z" />
    <glyph glyph-name="cent" unicode="&#xa2;" 
d="M514 141q0 -24 -20 -36q-8 -5 -48 -5h-74v-43q0 -57 -43 -57q-42 0 -42 57v44q-36 4 -61 25l-77 65q-41 35 -41 91v99q0 55 41 90l77 66q23 20 61 24v49q0 57 42 57q43 0 43 -57v-48h74q41 0 52 -8q16 -14 16 -33q0 -23 -20 -35q-10 -6 -48 -6h-74v-298h74q41 0 52 -9
q16 -13 16 -32zM287 185v293l-83 -68q-14 -11 -14 -43v-72q0 -32 14 -43z" />
    <glyph glyph-name="sterling" unicode="&#xa3;" 
d="M522 43q0 -43 -57 -43h-365v301h-30q-57 0 -57 43q0 42 57 42h29v100q0 55 41 90l77 66q29 25 87 25h133q43 0 53 -8q16 -13 16 -33q0 -23 -15 -32t-54 -9h-135q-24 0 -40 -14l-63 -56q-15 -13 -15 -25q0 -6 1 -10v-94h160q57 0 57 -42q0 -43 -57 -43h-160v-215h280
q57 0 57 -43z" />
    <glyph glyph-name="section" unicode="&#xa7;" 
d="M512 326q0 -44 -25.5 -76.5t-66.5 -40.5q44 -20 62.5 -43.5t18.5 -61.5q0 -47 -32.5 -75.5t-87.5 -28.5h-146q-52 0 -75 20l-23 20q-19 17 -19 35q0 17 12.5 29t29.5 12q20 0 39 -23q9 -11 37 -11h145q34 0 34 24q0 15 -27 27l-209 95q-71 32 -71 113q0 44 25.5 76.5
t66.5 40.5q-45 20 -63.5 43.5t-18.5 61.5q0 47 32.5 75.5t87.5 28.5h146q52 0 75 -20l23 -20q19 -17 19 -35q0 -17 -12.5 -29t-29.5 -12t-25.5 8.5t-17.5 17t-32 8.5h-146q-34 0 -34 -24q0 -14 28 -27l208 -95q72 -33 72 -113zM425 332q0 25 -30 38l-23 10h-123
q-53 0 -53 -45q0 -20 16 -31q6 -4 35 -17h123q55 0 55 45z" />
    <glyph glyph-name="bullet" unicode="&#x2022;" 
d="M406 297q0 -55 -55 -55h-82q-23 0 -38 15t-15 38v71q0 23 15.5 38.5t38.5 15.5h81q24 0 39.5 -15t15.5 -39v-69z" />
    <glyph glyph-name="paragraph" unicode="&#xb6;" 
d="M560 629q0 -38 -44 -38h-7v-708q0 -50 -42 -50q-43 0 -43 50v708h-63v-708q0 -50 -43 -50t-43 50v399q-96 1 -148 50t-52 140q0 119 89 168q49 27 152 27h200q44 0 44 -38z" />
    <glyph glyph-name="germandbls" unicode="&#xdf;" 
d="M472 79q0 -33 -23 -56t-56 -23h-113q-53 0 -53 40q0 39 53 39h66q47 0 47 33v142q0 47 -43 47h-39q-52 0 -52 40q0 39 52 39h40q40 0 40 49v67q0 37 -8.5 45.5t-44.5 8.5h-72q-41 0 -58.5 -13.5t-17.5 -46.5v-522q0 -41 -8 -52q-12 -16 -33 -16q-23 0 -36 20q-5 10 -5 48
v523q0 98 88 131q27 10 70 10h127q31 0 54 -20t23 -48v-155q0 -39 -29 -68q31 -35 31 -81v-181z" />
    <glyph glyph-name="acute" unicode="&#xb4;" 
d="M424 622q0 -22 -28 -40l-57 -37q-20 -13 -33 -13q-17 0 -30 13.5t-13 32.5q0 21 29 40l56 37q20 13 33 13q17 0 30 -13.5t13 -32.5z" />
    <glyph glyph-name="dieresis" unicode="&#xa8;" 
d="M455 592q0 -57 -42 -57q-43 0 -43 57v18q0 57 43 57q42 0 42 -57v-18zM249 592q0 -57 -42 -57q-43 0 -43 57v18q0 57 43 57q42 0 42 -57v-18z" />
    <glyph glyph-name="AE" unicode="&#xc6;" 
d="M566 43q0 -43 -57 -43h-129q-53 0 -55 45l-5 101h-128l-40 -104q-9 -23 -15 -30q-10 -13 -29 -13q-17 0 -29.5 12t-12.5 29q0 14 6 30l213 567q11 30 44 30h180q57 0 57 -42q0 -43 -57 -43h-130l12 -207h94q56 0 56 -42q0 -43 -56 -43h-88l12 -204h100q57 0 57 -43z
M316 231l-11 233l-81 -233h92z" />
    <glyph glyph-name="Oslash" unicode="&#xd8;" 
d="M523 333q0 -46 -19 -84l-94 -188q-30 -61 -101 -61q-67 0 -103 70l-20 -36q-19 -34 -45 -34q-17 0 -29.5 12.5t-12.5 28.5q0 14 13 36l49 84l-43 88q-20 41 -20 88q0 45 20 84l93 183q32 63 97 63q70 0 106 -71l22 39q18 32 44 32q17 0 29.5 -12t12.5 -28q0 -14 -13 -36
l-49 -84l42 -86q21 -43 21 -88zM362 508l-28 57q-8 16 -24 16t-24 -16l-86 -173q-17 -34 -17 -60q0 -22 19 -62l10 -21zM438 335q0 17 -15 52l-14 33l-152 -262l27 -53q10 -20 27 -20q16 0 24 16l88 176q15 30 15 58z" />
    <glyph glyph-name="plusminus" unicode="&#xb1;" 
d="M522 332q0 -43 -57 -43h-112v-111q0 -57 -42 -57q-43 0 -43 56v112h-111q-56 0 -56 43q0 42 56 42h111v112q0 57 43 57q42 0 42 -57v-112h112q57 0 57 -42zM522 43q0 -43 -56 -43h-309q-57 0 -57 43q0 42 57 42h309q56 0 56 -42z" />
    <glyph glyph-name="yen" unicode="&#xa5;" 
d="M522 536l-170 -219v-5h79q57 0 57 -43t-57 -43h-79v-170q0 -57 -42 -57q-43 0 -43 57v170h-78q-57 0 -57 43t57 43h78v5l-169 219v74q0 56 43 56q42 0 42 -56v-44l127 -164l127 164v44q0 56 43 56q42 0 42 -56v-74z" />
    <glyph glyph-name="ordfeminine" unicode="&#xaa;" 
d="M448 384q0 -32 -27 -32q-26 0 -28 28l-45 -23q-10 -5 -21 -5h-68q-37 0 -61.5 23.5t-24.5 58.5v38q0 32 25.5 54.5t60.5 22.5h100q16 0 28 -2l-1 30q-1 34 -42 34h-69q-46 0 -46 28t46 28h77q40 0 64.5 -23t25.5 -62zM473 269q0 -33 -43 -33h-238q-44 0 -44 33
q0 32 44 32h238q43 0 43 -32zM390 440v21q0 32 -33 32h-97q-31 0 -31 -28v-30q0 -27 29 -27h69z" />
    <glyph glyph-name="ordmasculine" unicode="&#xba;" 
d="M447 449q0 -38 -26 -58l-22 -17q-28 -22 -60 -22h-59q-32 0 -60 22l-22 17q-26 20 -26 58v121q0 38 26 58l22 17q28 22 60 22h59q32 0 60 -22l22 -17q26 -20 26 -58v-121zM472 269q0 -33 -43 -33h-238q-44 0 -44 33q0 32 44 32h238q43 0 43 -32zM391 456v107q0 15 -12 25
l-15 13q-12 10 -33 10h-44q-20 0 -32 -10l-15 -13q-12 -10 -12 -25v-107q0 -15 12 -25l15 -13q12 -10 32 -10h44q21 0 33 10l15 13q12 10 12 25z" />
    <glyph glyph-name="ae" unicode="&#xe6;" 
d="M573 41q0 -23 -14.5 -32t-53.5 -9h-87q-57 0 -70 16l-31 38l-17 -23q-23 -31 -83 -31h-52q-50 0 -81 33.5t-31 86.5v57q0 48 32 80t81 32h60q31 0 43 -3v44q0 33 -17 43q-12 7 -48 7h-31q-39 0 -54 9t-15 32t21 36q8 5 48 5h55q50 0 72 -23l23 -24l17 20q23 27 82 27h7
q48 0 70 -23l39 -40q35 -36 35 -90v-70q0 -44 -12 -56t-56 -12h-154v-19q0 -19 13 -34l20 -23q11 -13 35 -13h86q41 0 52 -8q16 -14 16 -33zM491 253v56q0 24 -9 34l-19 22q-13 15 -24 15h-24q-20 0 -31 -12l-20 -21q-13 -14 -13 -43v-51h140zM270 127v39q0 17 -13 29
t-32 12h-52q-38 0 -38 -41v-44q0 -40 36 -40h57q6 0 11 5l26 28q1 2 3 7q1 2 2 5z" />
    <glyph glyph-name="oslash" unicode="&#xf8;" 
d="M511 143q0 -55 -38 -86l-32 -26q-38 -31 -88 -31h-87q-26 0 -43 6l-21 -36q-18 -31 -41 -31q-16 0 -28 11.5t-12 26.5q0 13 12 33l23 39l-10 8q-38 30 -38 86v176q0 54 38 85l32 26q39 32 88 32h87q18 0 22.5 -1t10.5 -2q3 0 11 5l21 36q17 30 41 30q16 0 27.5 -11.5
t11.5 -26.5q0 -10 -13 -33l-25 -44l13 -11q38 -32 38 -85v-176zM429 153v156q0 20 -12 33l-150 -260h75q27 0 47 15l23 18q17 13 17 38zM348 380h-71q-29 0 -47 -15l-23 -19q-17 -14 -17 -37v-156q0 -17 9 -30z" />
    <glyph glyph-name="questiondown" unicode="&#xbf;" 
d="M437 449q0 -18 -12.5 -30.5t-29.5 -12.5q-18 0 -30.5 12.5t-12.5 29.5q0 18 12.5 30.5t30.5 12.5q17 0 29.5 -12.5t12.5 -29.5zM522 84q0 -19 -26 -41l-242 -208q-12 -10 -28 -10q-15 0 -27 10l-86 74q-14 12 -14 34v68q0 20 18 36l235 204v37q0 56 42 56q43 0 43 -56
v-59q0 -17 -17 -32l-236 -205v-32l42 -36l214 184q22 19 39 19q18 0 30.5 -13t12.5 -30z" />
    <glyph glyph-name="exclamdown" unicode="&#xa1;" 
d="M374 431q0 -34 -10.5 -47t-38.5 -13h-15q-36 0 -49.5 10t-13.5 37q0 40 3 48q9 25 45 25h15q37 0 50.5 -10t13.5 -37v-13zM371 -129q0 -46 -47 -46h-14q-34 0 -47 10t-13 36q0 17 1 24l15 276q2 40 11 53t33 13q25 0 34 -13t11 -53l15 -276q1 -18 1 -24z" />
    <glyph glyph-name="florin" unicode="&#x192;" 
d="M617 598q0 -20 -18 -36q-14 -12 -58 -12h-65q-67 0 -78 -60l-5 -28h61q32 0 42 -3q20 -7 20 -31q0 -20 -18 -36q-14 -12 -59 -12h-61l-54 -305q-15 -83 -19 -97q-4 -17 -19 -38q-51 -73 -153 -73h-59q-32 0 -42 3q-20 7 -20 31q0 20 18 36q14 12 58 12h65q67 0 78 60
l65 371h-30q-43 0 -43 34q0 48 58 48h30l5 28q12 67 59 104.5t121 37.5h59q32 0 42 -3q20 -7 20 -31z" />
    <glyph glyph-name="guillemotleft" unicode="&#xab;" 
d="M586 60q0 -17 -12 -29.5t-28 -12.5q-12 0 -35 15l-249 165q-29 19 -32.5 26t-3.5 41v41q0 20 5 27t31 24l249 165q23 15 35 15q16 0 28 -12.5t12 -29.5q0 -21 -30 -41l-265 -177l265 -176q30 -20 30 -41zM381 60q0 -17 -12 -29.5t-28 -12.5q-12 0 -35 15l-249 165
q-29 19 -32.5 26t-3.5 41v25q0 34 3.5 41t32.5 26l249 165q23 15 35 15q16 0 28 -12.5t12 -29.5q0 -21 -30 -41l-265 -177l265 -176q30 -20 30 -41z" />
    <glyph glyph-name="guillemotright" unicode="&#xbb;" 
d="M599 265q0 -34 -3.5 -41t-32.5 -26l-249 -165q-23 -15 -35 -15q-16 0 -28 12.5t-12 29.5q0 21 30 41l265 176l-266 177q-29 19 -29 41q0 17 12 29.5t28 12.5q12 0 35 -15l249 -165q29 -19 32.5 -26t3.5 -41v-25zM393 265q0 -34 -3.5 -41t-32.5 -26l-249 -165
q-23 -15 -35 -15q-16 0 -28 12.5t-12 29.5q0 21 30 41l265 176l-266 177q-29 19 -29 41q0 17 12 29.5t28 12.5q12 0 35 -15l249 -165q29 -19 32.5 -26t3.5 -41v-25z" />
    <glyph glyph-name="nonbreakingspace" unicode="&#xa0;" 
 />
    <glyph glyph-name="Agrave" unicode="&#xc0;" 
d="M357 578q0 -19 -13 -32.5t-30 -13.5q-13 0 -33 13l-57 37q-28 18 -28 40q0 19 13 32.5t30 13.5q13 0 33 -13l56 -37q29 -19 29 -40zM521 42q0 -17 -13 -29.5t-31 -12.5q-26 0 -43 43l-26 65h-196l-26 -66q-17 -42 -44 -42q-17 0 -30 12.5t-13 29.5q0 10 8 31l163 419
q11 28 39 28q30 0 41 -28l163 -419q8 -21 8 -31zM374 193l-65 166l-64 -166h129z" />
    <glyph glyph-name="Atilde" unicode="&#xc3;" 
d="M480 629q0 -38 -32 -66t-76 -28q-35 0 -65 21q-7 5 -15 11l-15 8q-24 13 -35 13q-14 0 -20 -19q-11 -33 -45 -33q-41 0 -41 37q0 38 31.5 66t75.5 28q37 0 71 -23l22 -15q22 -15 38 -15q14 0 20 19q11 33 45 33q41 0 41 -37zM521 42q0 -17 -13 -29.5t-31 -12.5
q-26 0 -43 43l-26 65h-196l-26 -66q-17 -42 -44 -42q-17 0 -30 12.5t-13 29.5q0 10 8 31l163 419q11 28 39 28q30 0 41 -28l163 -419q8 -21 8 -31zM374 193l-65 166l-64 -166h129z" />
    <glyph glyph-name="Otilde" unicode="&#xd5;" 
d="M480 629q0 -38 -32 -66t-76 -28q-34 0 -65 21q-7 5 -15 11l-15 8q-24 13 -35 13q-14 0 -20 -19q-11 -33 -45 -33q-41 0 -41 37q0 38 31.5 66t75.5 28q37 0 71 -23l22 -15q22 -15 38 -15q14 0 20 19q11 33 45 33q41 0 41 -37zM522 257q0 -32 -20 -62l-97 -145
q-33 -50 -95 -50q-63 0 -103 60l-87 129q-23 34 -23 69q0 30 18 60l92 153q35 59 103 59q63 0 100 -59l95 -153q17 -27 17 -61zM437 256q0 9 -7 20l-93 152q-10 17 -28 17t-28 -17l-91 -148q-8 -13 -8 -21t6 -17l93 -141q11 -16 28 -16q18 0 27 13l96 144q5 7 5 14z" />
    <glyph glyph-name="OE" unicode="&#x152;" 
d="M601 43q0 -43 -56 -43h-241q-62 0 -95 66l-89 176q-22 44 -22 92q0 47 18 83l93 187q31 63 103 63h233q56 0 56 -42q0 -43 -56 -43h-149v-207h114q57 0 57 -42q0 -43 -57 -43h-114v-204h149q56 0 56 -43zM311 86v496q-18 0 -26 -16l-85 -172q-17 -34 -17 -61
q0 -26 17 -60l83 -167q10 -20 28 -20z" />
    <glyph glyph-name="oe" unicode="&#x153;" 
d="M600 41q0 -23 -14.5 -32t-53.5 -9h-86q-59 0 -70 16l-32 45l-35 -29q-39 -32 -88 -32h-21q-49 0 -88 32l-32 26q-38 31 -38 85v176q0 54 38 85l32 26q39 32 88 32h21q48 0 88 -32l36 -29l23 34q18 27 82 27h7q47 0 69 -23l39 -40q35 -36 35 -90v-70q0 -44 -12 -56
t-56 -12h-153v-19q0 -19 13 -34l20 -23q11 -13 34 -13h86q41 0 52 -8q16 -14 16 -33zM518 253v56q0 24 -9 34l-19 22q-13 15 -24 15h-23q-21 0 -32 -12l-19 -21q-13 -14 -13 -44v-50h139zM297 153v156q0 25 -17 38l-23 18q-19 15 -46 15q-28 0 -47 -15l-23 -18
q-17 -13 -17 -38v-156q0 -25 17 -38l23 -18q19 -15 47 -15q26 0 46 15l23 18q17 13 17 38z" />
    <glyph glyph-name="endash" unicode="&#x2013;" 
d="M511 336q0 -43 -56 -43h-290q-57 0 -57 43t57 43h290q56 0 56 -43z" />
    <glyph glyph-name="emdash" unicode="&#x2014;" 
d="M620 336q0 -43 -57 -43h-506q-57 0 -57 43t57 43h506q57 0 57 -43z" />
    <glyph glyph-name="quotedblleft" unicode="&#x201c;" 
d="M475 435q0 -45 -55 -45h-16q-71 0 -71 45q0 9 5 40l24 150q7 42 42 42q34 0 41 -41l25 -151q5 -30 5 -40zM288 435q0 -45 -54 -45h-17q-71 0 -71 45q0 10 5 40l25 150q7 42 41 42q35 0 42 -41l24 -151q5 -31 5 -40z" />
    <glyph glyph-name="quotedblright" unicode="&#x201d;" 
d="M475 622q0 -10 -5 -40l-25 -150q-7 -42 -41 -42q-35 0 -42 41l-25 151q-4 24 -4 41q0 44 54 44h17q71 0 71 -45zM288 622q0 -10 -5 -40l-25 -150q-7 -42 -41 -42q-35 0 -42 41l-24 151q-5 31 -5 41q0 44 54 44h17q71 0 71 -45z" />
    <glyph glyph-name="quoteleft" unicode="&#x2018;" 
d="M381 435q0 -45 -54 -45h-17q-71 0 -71 45q0 10 5 40l25 150q7 42 41 42q35 0 42 -41l24 -151q5 -31 5 -40z" />
    <glyph glyph-name="quoteright" unicode="&#x2019;" 
d="M381 622q0 -10 -5 -40l-25 -150q-7 -42 -41 -42q-35 0 -42 41l-27 173q-2 11 -2 18q0 45 54 45h17q71 0 71 -45z" />
    <glyph glyph-name="divide" unicode="&#xf7;" 
d="M366 477q0 -29 -29 -29h-52q-28 0 -28 27v46q0 28 28 28h52q29 0 29 -28v-44zM522 331q0 -43 -56 -43h-309q-57 0 -57 43q0 42 57 42h309q56 0 56 -42zM366 151q0 -29 -29 -29h-52q-28 0 -28 27v46q0 28 28 28h52q29 0 29 -28v-44z" />
    <glyph glyph-name="ydieresis" unicode="&#xff;" 
d="M452 592q0 -57 -42 -57q-43 0 -43 57v18q0 57 43 57q42 0 42 -57v-18zM246 592q0 -57 -42 -57q-43 0 -43 57v18q0 57 43 57q42 0 42 -57v-18zM512 379q0 -33 -0.5 -36.5t-14.5 -32.5l-208 -451q-9 -20 -19 -27t-32 -7h-62q-41 0 -52 9q-16 13 -16 32q0 41 50 41h63
l61 127h-11q-23 0 -38 34l-110 242q-14 30 -14.5 33.5t-0.5 35.5v24q0 59 41 59q24 0 36 -20q5 -8 5 -48v-36l111 -242h18l111 242v36q0 41 8 52q14 16 33 16q41 0 41 -59v-24z" />
    <glyph glyph-name="Ydieresis" unicode="&#x178;" 
d="M455 592q0 -57 -42 -57q-43 0 -43 57v18q0 57 43 57q42 0 42 -57v-18zM249 592q0 -57 -42 -57q-43 0 -43 57v18q0 57 43 57q42 0 42 -57v-18zM522 390l-170 -219v-114q0 -57 -42 -57q-43 0 -43 57v114l-169 219v73q0 57 43 57q42 0 42 -57v-44l127 -164l127 164v44
q0 57 43 57q42 0 42 -57v-73z" />
    <glyph glyph-name="currency" unicode="&#xa4;" 
d="M602 145l-52 430h52v-430zM388 575l-77 -240l-69 240h146zM457 -1h-97l73 226zM80 575l-62 -449v449h62zM261 -1h-98l27 227z" />
    <glyph glyph-name="guilsinglleft" unicode="&#x2039;" 
d="M494 62q0 -17 -12 -29.5t-29 -12.5q-15 0 -36 14l-254 169q-29 20 -33 27t-4 42v25q0 35 4 42t33 27l254 169q21 14 36 14q17 0 29 -12.5t12 -29.5q0 -22 -30 -42l-272 -180l272 -181q30 -20 30 -42z" />
    <glyph glyph-name="guilsinglright" unicode="&#x203a;" 
d="M494 272q0 -35 -4 -42.5t-33 -26.5l-255 -168q-23 -15 -35 -15q-17 0 -29 12.5t-12 29.5q0 22 30 42l271 180l-271 181q-30 20 -30 42q0 17 12 29.5t29 12.5q15 0 36 -14l254 -169q6 -4 14 -9q16 -10 19.5 -19t3.5 -41v-25z" />
    <glyph glyph-name="daggerdbl" unicode="&#x2021;" 
d="M487 277q0 -43 -57 -43h-78v-177q0 -56 -43 -56q-42 0 -42 56v177h-78q-57 0 -57 43q0 42 57 42h78v94h-78q-57 0 -57 43t57 43h78v111q0 57 42 57q43 0 43 -57v-111h78q57 0 57 -43t-57 -43h-78v-94h78q57 0 57 -42z" />
    <glyph glyph-name="periodcentered" unicode="&#xb7;" 
d="M396 199q0 -45 -45 -45h-82q-43 0 -43 43v71q0 19 12.5 31.5t31.5 12.5h81q45 0 45 -44v-69z" />
    <glyph glyph-name="periodcentered" unicode="&#x2219;" 
d="M396 199q0 -45 -45 -45h-82q-43 0 -43 43v71q0 19 12.5 31.5t31.5 12.5h81q45 0 45 -44v-69z" />
    <glyph glyph-name="quotedblbase" unicode="&#x201e;" 
d="M475 220q0 -10 -5 -40l-25 -150q-7 -42 -41 -42q-35 0 -42 41l-25 151q-4 24 -4 41q0 44 54 44h17q71 0 71 -45zM288 220q0 -10 -5 -40l-25 -150q-7 -42 -41 -42q-35 0 -42 41l-24 151q-5 31 -5 41q0 44 54 44h17q71 0 71 -45z" />
    <glyph glyph-name="perthousand" unicode="&#x2030;" 
d="M237 421q0 -16 -13 -28.5t-30 -12.5h-90q-17 0 -29.5 13t-12.5 30v234q0 17 13 30t30 13h89q18 0 30.5 -13t12.5 -32v-234zM620 -59q0 -16 -13 -28.5t-30 -12.5h-90q-17 0 -29.5 13t-12.5 30v234q0 17 13 30t30 13h89q18 0 30.5 -13t12.5 -32v-234zM479 677
q0 -18 -19 -51l-401 -692q-20 -35 -37 -35q-22 0 -22 26q0 19 19 52l401 689q20 34 40 34q19 0 19 -23zM415 -58q0 -16 -13 -28.5t-30 -12.5h-91q-17 0 -29.5 13t-12.5 30v235q0 17 13 30t30 13h90q18 0 30.5 -13t12.5 -32v-235zM191 426v228h-83v-228h83zM574 -54v228h-83
v-228h83zM369 -53v229h-84v-229h84z" />
    <glyph glyph-name="Acircumflex" unicode="&#xc2;" 
d="M457 578q0 -19 -13 -32.5t-30 -13.5q-13 0 -33 13l-54 35h-35l-54 -35q-20 -13 -32 -13q-17 0 -30 13.5t-13 32.5q0 22 28 40l57 37q18 12 34 12h55q17 0 35 -12l56 -37q29 -19 29 -40zM521 42q0 -17 -13 -29.5t-31 -12.5q-26 0 -43 43l-26 65h-196l-26 -66
q-17 -42 -44 -42q-17 0 -30 12.5t-13 29.5q0 10 8 31l163 419q11 28 39 28q30 0 41 -28l163 -419q8 -21 8 -31zM374 193l-65 166l-64 -166h129z" />
    <glyph glyph-name="Ecircumflex" unicode="&#xca;" 
d="M457 578q0 -19 -13 -32.5t-30 -13.5q-13 0 -33 13l-53 35h-36l-53 -35q-20 -13 -33 -13q-17 0 -30 13.5t-13 32.5q0 22 28 40l57 37q18 12 34 12h56q16 0 34 -12l57 -37q28 -18 28 -40zM522 43q0 -43 -57 -43h-367v520h367q57 0 57 -42q0 -43 -57 -43h-282v-133h114
q57 0 57 -42q0 -43 -57 -43h-114v-132h282q57 0 57 -42z" />
    <glyph glyph-name="Aacute" unicode="&#xc1;" 
d="M423 622q0 -22 -28 -40l-57 -37q-20 -13 -32 -13q-17 0 -30 13.5t-13 32.5q0 22 28 40l57 37q20 13 32 13q17 0 30 -13.5t13 -32.5zM521 42q0 -17 -13 -29.5t-31 -12.5q-26 0 -43 43l-26 65h-196l-26 -66q-17 -42 -44 -42q-17 0 -30 12.5t-13 29.5q0 10 8 31l163 419
q11 28 39 28q30 0 41 -28l163 -419q8 -21 8 -31zM374 193l-65 166l-64 -166h129z" />
    <glyph glyph-name="Edieresis" unicode="&#xcb;" 
d="M455 592q0 -57 -42 -57q-43 0 -43 57v18q0 57 43 57q42 0 42 -57v-18zM249 592q0 -57 -42 -57q-43 0 -43 57v18q0 57 43 57q42 0 42 -57v-18zM522 43q0 -43 -57 -43h-367v520h367q57 0 57 -42q0 -43 -57 -43h-282v-133h114q57 0 57 -42q0 -43 -57 -43h-114v-132h282
q57 0 57 -42z" />
    <glyph glyph-name="Egrave" unicode="&#xc8;" 
d="M357 578q0 -19 -13 -32.5t-30 -13.5q-13 0 -33 13l-56 37q-29 19 -29 40q0 19 13 32.5t30 13.5q13 0 33 -13l57 -37q28 -18 28 -40zM522 43q0 -43 -57 -43h-367v520h367q57 0 57 -42q0 -43 -57 -43h-282v-133h114q57 0 57 -42q0 -43 -57 -43h-114v-132h282q57 0 57 -42z
" />
    <glyph glyph-name="Iacute" unicode="&#xcd;" 
d="M424 622q0 -21 -29 -40l-56 -37q-20 -13 -33 -13q-17 0 -30 13.5t-13 32.5q0 22 28 40l57 37q20 13 33 13q17 0 30 -13.5t13 -32.5zM522 43q0 -43 -57 -43h-308q-57 0 -57 43q0 42 57 42h111v350h-113q-57 0 -57 43q0 42 57 42h310q57 0 57 -42q0 -43 -57 -43h-112v-350
h112q57 0 57 -42z" />
    <glyph glyph-name="Icircumflex" unicode="&#xce;" 
d="M457 578q0 -19 -13 -32.5t-30 -13.5q-13 0 -33 13l-53 35h-36l-53 -35q-20 -13 -33 -13q-17 0 -30 13.5t-13 32.5q0 22 28 40l57 37q18 12 34 12h56q16 0 34 -12l57 -37q28 -18 28 -40zM522 43q0 -43 -57 -43h-308q-57 0 -57 43q0 42 57 42h111v350h-113q-57 0 -57 43
q0 42 57 42h310q57 0 57 -42q0 -43 -57 -43h-112v-350h112q57 0 57 -42z" />
    <glyph glyph-name="Idieresis" unicode="&#xcf;" 
d="M455 592q0 -57 -42 -57q-43 0 -43 57v18q0 57 43 57q42 0 42 -57v-18zM249 592q0 -57 -42 -57q-43 0 -43 57v18q0 57 43 57q42 0 42 -57v-18zM522 43q0 -43 -57 -43h-308q-57 0 -57 43q0 42 57 42h111v350h-113q-57 0 -57 43q0 42 57 42h310q57 0 57 -42q0 -43 -57 -43
h-112v-350h112q57 0 57 -42z" />
    <glyph glyph-name="Igrave" unicode="&#xcc;" 
d="M357 578q0 -19 -13 -32.5t-30 -13.5q-13 0 -33 13l-56 37q-29 19 -29 40q0 19 13 32.5t30 13.5q13 0 33 -13l57 -37q28 -18 28 -40zM522 43q0 -43 -57 -43h-308q-57 0 -57 43q0 42 57 42h111v350h-113q-57 0 -57 43q0 42 57 42h310q57 0 57 -42q0 -43 -57 -43h-112v-350
h112q57 0 57 -42z" />
    <glyph glyph-name="Oacute" unicode="&#xd3;" 
d="M423 622q0 -22 -28 -40l-57 -37q-20 -13 -32 -13q-17 0 -30 13.5t-13 32.5q0 22 28 40l57 37q20 13 32 13q17 0 30 -13.5t13 -32.5zM522 257q0 -32 -20 -62l-97 -145q-33 -50 -95 -50q-63 0 -103 60l-87 129q-23 34 -23 69q0 30 18 60l92 153q35 59 103 59q63 0 100 -59
l95 -153q17 -27 17 -61zM437 256q0 9 -7 20l-93 152q-10 17 -28 17t-28 -17l-91 -148q-8 -13 -8 -21t6 -17l93 -141q11 -16 28 -16q18 0 27 13l96 144q5 7 5 14z" />
    <glyph glyph-name="Ocircumflex" unicode="&#xd4;" 
d="M457 578q0 -19 -13 -32.5t-30 -13.5q-13 0 -33 13l-54 35h-35l-54 -35q-20 -13 -32 -13q-17 0 -30 13.5t-13 32.5q0 22 28 40l57 37q18 12 34 12h55q17 0 35 -12l56 -37q29 -19 29 -40zM522 257q0 -32 -20 -62l-97 -145q-33 -50 -95 -50q-63 0 -103 60l-87 129
q-23 34 -23 69q0 30 18 60l92 153q35 59 103 59q63 0 100 -59l95 -153q17 -27 17 -61zM437 256q0 9 -7 20l-93 152q-10 17 -28 17t-28 -17l-91 -148q-8 -13 -8 -21t6 -17l93 -141q11 -16 28 -16q18 0 27 13l96 144q5 7 5 14z" />
    <glyph glyph-name="Ograve" unicode="&#xd2;" 
d="M357 578q0 -19 -13 -32.5t-30 -13.5q-13 0 -33 13l-57 37q-28 18 -28 40q0 19 13 32.5t30 13.5q13 0 33 -13l56 -37q29 -19 29 -40zM522 257q0 -32 -20 -62l-97 -145q-33 -50 -95 -50q-63 0 -103 60l-87 129q-23 34 -23 69q0 30 18 60l92 153q35 59 103 59q63 0 100 -59
l95 -153q17 -27 17 -61zM437 256q0 9 -7 20l-93 152q-10 17 -28 17t-28 -17l-91 -148q-8 -13 -8 -21t6 -17l93 -141q11 -16 28 -16q18 0 27 13l96 144q5 7 5 14z" />
    <glyph glyph-name="Uacute" unicode="&#xda;" 
d="M424 622q0 -22 -28 -40l-57 -37q-20 -13 -33 -13q-17 0 -30 13.5t-13 32.5q0 21 29 40l56 37q20 13 33 13q17 0 30 -13.5t13 -32.5zM522 133q0 -56 -36.5 -94.5t-88.5 -38.5h-171q-54 0 -91 38.5t-37 94.5v330q0 57 43 57q42 0 42 -57v-330q0 -48 54 -48h144
q32 0 44 11.5t12 42.5v325q0 56 43 56q42 0 42 -56v-331z" />
    <glyph glyph-name="Ucircumflex" unicode="&#xdb;" 
d="M458 578q0 -19 -13 -32.5t-30 -13.5q-13 0 -33 13l-54 35h-35l-54 -35q-20 -13 -33 -13q-17 0 -30 13.5t-13 32.5q0 21 29 40l56 37q18 12 35 12h55q17 0 35 -12l56 -37q29 -19 29 -40zM522 133q0 -56 -36.5 -94.5t-88.5 -38.5h-171q-54 0 -91 38.5t-37 94.5v330
q0 57 43 57q42 0 42 -57v-330q0 -48 54 -48h144q32 0 44 11.5t12 42.5v325q0 56 43 56q42 0 42 -56v-331z" />
    <glyph glyph-name="Ugrave" unicode="&#xd9;" 
d="M357 578q0 -19 -13 -32.5t-30 -13.5q-12 0 -32 13l-57 37q-28 18 -28 40q0 19 13 32.5t30 13.5q12 0 32 -13l57 -37q28 -18 28 -40zM522 133q0 -56 -36.5 -94.5t-88.5 -38.5h-171q-54 0 -91 38.5t-37 94.5v330q0 57 43 57q42 0 42 -57v-330q0 -48 54 -48h144
q32 0 44 11.5t12 42.5v325q0 56 43 56q42 0 42 -56v-331z" />
    <glyph glyph-name="circumflex" unicode="&#x2c6;" 
d="M457 578q0 -19 -13 -32.5t-30 -13.5q-12 0 -32 13l-54 35h-35l-54 -35q-20 -13 -33 -13q-17 0 -30 13.5t-13 32.5q0 21 29 40l56 37q18 12 35 12h55q16 0 34 -12l57 -37q28 -18 28 -40z" />
    <glyph glyph-name="tilde" unicode="&#x2dc;" 
d="M480 629q0 -38 -32 -66t-76 -28q-33 0 -64 21q-7 5 -16 11l-14 8q-23 13 -35 13q-15 0 -21 -19q-11 -33 -44 -33q-41 0 -41 37q0 38 31.5 66t75.5 28q35 0 70 -23l23 -15q23 -15 37 -15q15 0 21 19q11 33 44 33q41 0 41 -37z" />
    <glyph glyph-name="macron" unicode="&#xaf;" 
d="M485 626q0 -42 -55 -42h-240q-56 0 -56 42q0 41 56 41h240q55 0 55 -41z" />
    <glyph glyph-name="macron" unicode="&#x2c9;" 
d="M485 626q0 -42 -55 -42h-240q-56 0 -56 42q0 41 56 41h240q55 0 55 -41z" />
    <glyph glyph-name="cedilla" unicode="&#xb8;" 
d="M390 -84q0 -22 -28 -40l-57 -37q-20 -13 -33 -13q-17 0 -30 13.5t-13 31.5q0 22 29 41l56 37q20 13 33 13q17 0 30 -13.5t13 -32.5z" />
    <glyph glyph-name="Scaron" unicode="&#x160;" 
d="M457 622q0 -22 -28 -40l-57 -37q-18 -12 -34 -12h-56q-16 0 -34 12l-57 37q-28 18 -28 40q0 19 13 32.5t30 13.5q13 0 33 -13l53 -35h36l53 35q20 13 33 13q17 0 30 -13.5t13 -32.5zM522 96q0 -40 -28.5 -68t-69.5 -28h-210q-46 0 -80.5 32t-34.5 74q0 49 44 49
q35 0 41 -48q3 -22 27 -22h207q20 0 18 12q0 8 -9 15l-302 245q-27 22 -27 61q0 47 28.5 74.5t77.5 27.5h203q45 0 79.5 -33.5t34.5 -76.5q0 -49 -42 -49q-38 0 -43 48q-3 26 -31 26h-203q-18 0 -18 -13q0 -8 7 -14l302 -244q29 -23 29 -68z" />
    <glyph glyph-name="scaron" unicode="&#x161;" 
d="M457 622q0 -22 -28 -40l-57 -37q-18 -12 -34 -12h-55q-17 0 -35 12l-56 37q-29 19 -29 40q0 19 13 32.5t30 13.5q13 0 33 -13l54 -35h35l54 35q20 13 32 13q17 0 30 -13.5t13 -32.5zM512 121q0 -53 -35.5 -87t-90.5 -34h-148q-60 0 -84 19l-20 16q-26 21 -26 39
q0 17 12.5 29t30.5 12q17 0 35 -18q12 -15 52 -15h132q55 0 55 45q0 24 -30 38l-213 97q-64 29 -64 96q0 47 32.5 75.5t87.5 28.5h146q52 0 75 -20l23 -20q19 -17 19 -35q0 -17 -12.5 -29t-29.5 -12q-19 0 -39 23q-9 11 -36 11h-146q-34 0 -34 -24q0 -14 28 -27l208 -94
q72 -33 72 -114z" />
    <glyph glyph-name="Eth" unicode="&#xd0;" 
d="M521 336q0 -50 -20 -90l-87 -175q-35 -71 -121 -71h-139q-57 0 -57 43t57 43h28v207h-17q-57 0 -57 43t57 43h17v203h-28q-57 0 -57 43q0 42 57 42h147q78 0 115 -75l84 -171q21 -43 21 -85zM436 333q0 24 -17 58l-81 164q-13 27 -44 27h-27v-203h53q57 0 57 -43t-57 -43
h-53v-207h29q31 0 44 27l84 171q12 24 12 49z" />
    <glyph glyph-name="eth" unicode="&#xf0;" 
d="M511 143q0 -54 -38 -85l-32 -26q-39 -32 -88 -32h-87q-49 0 -88 32l-32 26q-38 31 -38 85v109q0 54 38 85l32 26q39 32 88 32h136l-62 104l-70 -44q-22 -14 -35 -14q-15 0 -27 12t-12 28q0 24 31 43l71 44l-10 17h-12q-38 0 -53 9t-15 32q0 24 20 36q8 5 48 5h29
q21 0 28.5 -5.5t21.5 -28.5l13 -22l68 43q21 13 34 13q16 0 28 -12t12 -29q0 -22 -31 -41l-70 -44l88 -149q14 -24 14 -73v-176zM429 153v160h-152q-27 0 -47 -15l-23 -18q-17 -13 -17 -38v-89q0 -25 17 -38l23 -18q20 -15 47 -15h65q27 0 47 15l23 18q17 13 17 38z" />
    <glyph glyph-name="Yacute" unicode="&#xdd;" 
d="M424 622q0 -21 -29 -40l-56 -37q-20 -13 -33 -13q-17 0 -30 13.5t-13 32.5q0 22 28 40l57 37q20 13 33 13q17 0 30 -13.5t13 -32.5zM522 390l-170 -219v-114q0 -57 -42 -57q-43 0 -43 57v114l-169 219v73q0 57 43 57q42 0 42 -57v-44l127 -164l127 164v44q0 57 43 57
q42 0 42 -57v-73z" />
    <glyph glyph-name="yacute" unicode="&#xfd;" 
d="M423 622q0 -22 -28 -40l-57 -37q-20 -13 -32 -13q-17 0 -30 13.5t-13 32.5q0 22 28 40l57 37q20 13 32 13q17 0 30 -13.5t13 -32.5zM512 379q0 -33 -0.5 -36.5t-14.5 -32.5l-208 -451q-9 -20 -19 -27t-32 -7h-62q-41 0 -52 9q-16 13 -16 32q0 41 50 41h63l61 127h-11
q-23 0 -38 34l-110 242q-14 30 -14.5 33.5t-0.5 35.5v24q0 59 41 59q24 0 36 -20q5 -8 5 -48v-36l111 -242h18l111 242v36q0 41 8 52q14 16 33 16q41 0 41 -59v-24z" />
    <glyph glyph-name="Thorn" unicode="&#xde;" 
d="M523 292q0 -66 -37 -103t-103 -37h-201v-95q0 -57 -42 -57q-43 0 -43 57v553q0 57 43 57q42 0 42 -57v-43h212q58 0 93.5 -37t35.5 -99v-139zM438 292v139q0 51 -52 51h-203v-245h206q49 0 49 55z" />
    <glyph glyph-name="thorn" unicode="&#xfe;" 
d="M511 168q0 -67 -45 -102l-66 -52q-39 -31 -80 -31h-20q-39 0 -78 35l-32 29v-154q0 -41 -8 -52q-14 -16 -33 -16q-24 0 -36 20q-5 8 -5 48v670q0 42 8 53q14 16 33 16q41 0 41 -47v-187l32 29q23 21 37.5 28t40.5 7h20q41 0 80 -31l66 -52q45 -35 45 -102v-109zM429 175
v95q0 28 -15 41l-72 61q-9 8 -23 8h-14q-14 0 -32 -17l-67 -63q-16 -15 -16 -38v-79q0 -23 16 -38l67 -63q18 -17 32 -17h14q14 0 23 8l72 61q15 13 15 41z" />
    <glyph glyph-name="minus" unicode="&#xad;" 
d="M520 331q0 -43 -56 -43h-309q-57 0 -57 43q0 42 57 42h309q56 0 56 -42z" />
    <glyph glyph-name="minus" unicode="&#x2212;" 
d="M520 331q0 -43 -56 -43h-309q-57 0 -57 43q0 42 57 42h309q56 0 56 -42z" />
    <glyph glyph-name="multiply" unicode="&#xd7;" 
d="M473 449q0 -16 -23 -39l-79 -79l79 -79q22 -22 22 -39q0 -19 -12.5 -31.5t-31.5 -12.5q-17 0 -39 22l-78 79l-79 -78q-23 -23 -39 -23q-19 0 -31.5 12.5t-12.5 31.5q0 16 23 39l78 79l-79 79q-23 23 -23 39q0 19 12.5 31.5t31.5 12.5q16 0 39 -23l79 -79l80 79
q23 23 39 23q19 0 31.5 -12.5t12.5 -31.5z" />
    <glyph glyph-name="onehalf" unicode="&#xbd;" 
d="M261 330q0 -30 -27 -30h-196q-38 0 -38 29q0 28 38 28h64v286h-64q-38 0 -38 29q0 28 38 28h122v-343h43v91q0 37 29 37t29 -37v-118zM559 664q0 -16 -13 -38l-401 -692q-20 -35 -44 -35q-30 0 -30 29q0 25 14 49l401 689q20 34 41 34q13 0 22.5 -10.5t9.5 -25.5z
M620 -72q0 -29 -37 -29h-225v174q0 24 16 39.5t40 15.5h148v114h-166q-38 0 -38 29q0 28 38 28h169q24 0 39.5 -16t15.5 -40v-118q0 -24 -15.5 -39.5t-39.5 -15.5h-148v-114h166q37 0 37 -28z" />
    <glyph glyph-name="onequarter" unicode="&#xbc;" 
d="M261 330q0 -30 -27 -30h-196q-38 0 -38 29q0 28 38 28h64v286h-64q-38 0 -38 29q0 28 38 28h122v-343h43v91q0 37 29 37t29 -37v-118zM566 664q0 -16 -13 -38l-401 -692q-20 -35 -44 -35q-31 0 -31 29q0 23 15 49l401 689q20 34 41 34q13 0 22.5 -10.5t9.5 -25.5zM620 55
q0 -22 -26 -28v-92q0 -37 -29 -37t-29 37v92h-152v234q0 37 29 37t29 -37v-177h94v134q0 37 29 37t29 -37v-134q26 -4 26 -29z" />
    <glyph glyph-name="threequarters" unicode="&#xbe;" 
d="M261 354q0 -23 -16 -38.5t-39 -15.5h-168q-38 0 -38 29q0 28 38 28h165v87q0 27 -24 27h-90q-38 0 -38 29q0 28 38 28h90q23 0 23 28v87h-164q-38 0 -38 29q0 28 38 28h168q22 0 38 -13.5t16 -33.5v-110q0 -25 -18 -43q19 -22 19 -52v-94zM566 664q0 -16 -13 -38
l-401 -692q-20 -35 -44 -35q-31 0 -31 29q0 23 15 49l401 689q20 34 41 34q13 0 22.5 -10.5t9.5 -25.5zM620 55q0 -22 -26 -28v-92q0 -37 -29 -37t-29 37v92h-152v234q0 37 29 37t29 -37v-177h94v134q0 37 29 37t29 -37v-134q26 -4 26 -29z" />
    <glyph glyph-name="fraction" unicode="&#x2044;" 
d="M559 664q0 -16 -13 -38l-401 -692q-20 -35 -44 -35q-30 0 -30 29q0 25 14 49l401 689q20 34 41 34q13 0 22.5 -10.5t9.5 -25.5z" />
    <glyph glyph-name="fi" unicode="&#xf001;" 
d="M473 597q0 -47 -51 -47q-55 0 -55 47v12q0 38 13 48q10 8 37 8q26 0 35 -3q16 -6 20 -26q1 -10 1 -27v-12zM579 41q0 -23 -14.5 -32t-54.5 -9h-185q-39 0 -54 9t-15 32t21 36q8 5 48 5h53v298h-180v-312q0 -41 -8 -52q-12 -16 -33 -16q-23 0 -36 21q-5 8 -5 47v312h-12
q-39 0 -53.5 9t-14.5 32t15 32t53 9h12v28q0 68 41 105t115 37q60 0 60 -41t-50 -41h-16q-68 0 -68 -60v-28h212q34 0 44 -18q6 -12 6 -50v-312h50q42 0 53 -8q16 -14 16 -33z" />
    <glyph glyph-name="fl" unicode="&#xf002;" 
d="M586 41q0 -23 -15 -32t-54 -9h-186q-38 0 -53 9t-15 32q0 24 20 36q8 5 48 5h54v468h-112q-68 0 -68 -60v-28h61q42 0 53 -8q16 -14 16 -33q0 -23 -21 -36q-8 -5 -48 -5h-61v-312q0 -41 -8 -52q-12 -16 -33 -16q-24 0 -36 21q-5 9 -5 47v312h-12q-39 0 -53.5 9t-14.5 32
t15 32t53 9h12v28q0 65 43 105q29 27 67 34q19 3 76 3h90q44 0 56 -12t12 -56v-482h50q42 0 53 -8q16 -14 16 -33z" />
    <glyph glyph-name="breve" unicode="&#x2d8;" 
d="M464 628q0 -23 -17 -48.5t-40 -37.5q-27 -14 -96 -14q-70 0 -97 14q-23 12 -40 37.5t-17 48.5q0 39 43 39q23 0 38 -33q9 -19 31 -24q10 -2 42 -2q43 0 54 5t22 29.5t34 24.5q43 0 43 -39z" />
    <glyph glyph-name="dotaccent" unicode="&#x2d9;" 
d="M352 592q0 -57 -42 -57q-43 0 -43 57v18q0 57 43 57q42 0 42 -57v-18z" />
    <glyph glyph-name="ring" unicode="&#x2da;" 
d="M475 532q0 -34 -23 -57t-57 -23h-146q-34 0 -57 23t-23 57v55q0 34 23 57t57 23h146q34 0 57 -23t23 -57v-55zM394 528v58h-145v-58h145z" />
    <glyph glyph-name="hungarumlaut" unicode="&#x2dd;" 
d="M511 622q0 -21 -29 -40l-56 -37q-20 -13 -33 -13q-17 0 -30 13.5t-13 32.5q0 22 28 40l57 37q20 13 33 13q17 0 30 -13.5t13 -32.5zM324 622q0 -22 -28 -40l-57 -37q-20 -13 -33 -13q-17 0 -30 13.5t-13 32.5q0 21 29 40l56 37q20 13 33 13q17 0 30 -13.5t13 -32.5z" />
    <glyph glyph-name="ogonek" unicode="&#x2db;" horiz-adv-x="763" 
d="M586 -126q0 -41 -46 -41q-41 0 -69.5 27.5t-28.5 66.5q0 37 28 73h87q-34 -37 -34 -62t29 -29q34 -4 34 -35z" />
    <glyph glyph-name="caron" unicode="&#x2c7;" 
d="M457 622q0 -22 -28 -40l-57 -37q-18 -12 -34 -12h-55q-17 0 -35 12l-56 37q-29 19 -29 40q0 19 13 32.5t30 13.5q13 0 33 -13l54 -35h35l54 35q20 13 32 13q17 0 30 -13.5t13 -32.5z" />
    <glyph glyph-name="Lslash" unicode="&#x141;" 
d="M521 43q0 -43 -57 -43h-365v228l-22 -14q-22 -14 -36 -14q-16 0 -28.5 13t-12.5 30q0 24 32 44l67 42v280q0 57 42 57q43 0 43 -57v-227l111 69q23 14 36 14q16 0 28.5 -13t12.5 -30q0 -23 -32 -43l-156 -98v-196h280q57 0 57 -42z" />
    <glyph glyph-name="dotlessi" unicode="&#x131;" 
d="M472 41q0 -23 -14.5 -32t-54.5 -9h-186q-41 0 -52 9q-16 13 -16 32q0 23 21 36q8 5 47 5h54v298h-54q-41 0 -52 8q-16 14 -16 33q0 23 21 36q8 5 47 5h68q44 0 56 -12t12 -56v-312h50q42 0 53 -8q16 -14 16 -33z" />
    <glyph glyph-name="lslash" unicode="&#x142;" 
d="M480 405q0 -22 -31 -41l-97 -61v-221h50q42 0 53 -8q16 -14 16 -33q0 -23 -21 -36q-8 -5 -48 -5h-186q-41 0 -52 8q-16 14 -16 33q0 23 21 36q8 5 47 5h54v171l-51 -32q-21 -13 -34 -13q-15 0 -27 12t-12 27q0 24 30 43l94 58v202h-54q-41 0 -52 8q-16 14 -16 33
q0 23 21 36q8 5 47 5h68q44 0 56 -12t12 -56v-165l54 34q21 13 35 13q16 0 27.5 -12t11.5 -29z" />
    <glyph glyph-name="greaterequal" unicode="&#x2265;" 
d="M542 406q0 -25 -23 -40l-357 -237q-26 -17 -40 -17q-18 0 -31.5 14t-13.5 33q0 25 33 47l302 200l-302 201q-33 23 -33 47q0 19 13.5 33t31.5 14q14 0 40 -17l357 -237q23 -15 23 -41zM552 43q0 -43 -57 -43h-371q-57 0 -57 43q0 42 57 42h371q57 0 57 -42z" />
    <glyph glyph-name="lessequal" unicode="&#x2264;" 
d="M543 654q0 -24 -34 -47l-302 -201l302 -200q33 -22 33 -47q0 -19 -13.5 -33t-31.5 -14q-14 0 -40 17l-357 237q-23 15 -23 40q0 26 23 41l357 237q26 17 40 17q19 0 32.5 -14t13.5 -33zM552 43q0 -43 -57 -43h-371q-57 0 -57 43q0 42 57 42h371q57 0 57 -42z" />
    <glyph glyph-name="zcaron" unicode="&#x17e;" 
d="M470 622q0 -22 -28 -40l-57 -37q-18 -12 -34 -12h-55q-17 0 -35 12l-56 37q-29 19 -29 40q0 19 13 32.5t30 13.5q13 0 33 -13l54 -35h35l54 35q20 13 32 13q17 0 30 -13.5t13 -32.5zM512 41q0 -23 -21 -36q-8 -5 -48 -5h-267q-44 0 -56 12t-12 56v4q0 16 3 22t20 22
l276 264h-208q-41 0 -52 8q-16 14 -16 33q0 41 50 41h262q43 0 56 -11t13 -49v-13q0 -21 -17 -37l-284 -270h232q42 0 53 -8q16 -14 16 -33z" />
    <glyph glyph-name="Zcaron" unicode="&#x17d;" 
d="M457 622q0 -22 -28 -40l-57 -37q-18 -12 -34 -12h-56q-16 0 -34 12l-57 37q-28 18 -28 40q0 19 13 32.5t30 13.5q13 0 33 -13l53 -35h36l53 35q20 13 33 13q17 0 30 -13.5t13 -32.5zM522 459l-294 -374h245q48 0 48 -42q0 -43 -57 -43h-366v60l294 375h-237q-57 0 -57 43
q0 42 57 42h367v-61z" />
  </font>
</defs>
</svg>
